<mxfile host="65bd71144e">
    <diagram id="87JgUpH6stdkDHmpmVzE" name="Page-1">
        <mxGraphModel dx="934" dy="638" grid="1" gridSize="10" guides="1" tooltips="1" connect="1" arrows="1" fold="1" page="1" pageScale="1" pageWidth="850" pageHeight="1100" math="0" shadow="0">
            <root>
                <mxCell id="0"/>
                <mxCell id="1" parent="0"/>
                <mxCell id="vd5NY1QZO35afTzQmUpz-79" value="&lt;div style=&quot;color: rgb(240 , 240 , 240) ; font-family: &amp;#34;helvetica&amp;#34; ; font-size: 12px ; font-style: normal ; font-weight: 400 ; letter-spacing: normal ; text-align: left ; text-indent: 0px ; text-transform: none ; word-spacing: 0px ; background-color: rgb(42 , 42 , 42)&quot;&gt;&lt;br&gt;&lt;/div&gt;" style="rounded=1;whiteSpace=wrap;html=1;labelBackgroundColor=default;fontSize=18;arcSize=6;" parent="1" vertex="1">
                    <mxGeometry x="50" y="184.5" width="1040" height="286" as="geometry"/>
                </mxCell>
                <mxCell id="vd5NY1QZO35afTzQmUpz-80" value="&lt;span style=&quot;color: rgb(0, 0, 0); font-family: Helvetica; font-size: 18px; font-style: normal; font-variant-ligatures: normal; font-variant-caps: normal; font-weight: 400; letter-spacing: normal; orphans: 2; text-align: center; text-indent: 0px; text-transform: none; widows: 2; word-spacing: 0px; -webkit-text-stroke-width: 0px; background-color: rgb(248, 249, 250); text-decoration-thickness: initial; text-decoration-style: initial; text-decoration-color: initial; float: none; display: inline !important;&quot;&gt;Local machine&lt;span&gt;&amp;nbsp;&lt;/span&gt;&lt;/span&gt;" style="text;whiteSpace=wrap;html=1;" parent="1" vertex="1">
                    <mxGeometry x="60" y="195.5" width="150" height="30" as="geometry"/>
                </mxCell>
                <mxCell id="vd5NY1QZO35afTzQmUpz-77" value="&lt;div style=&quot;color: rgb(240 , 240 , 240) ; font-family: &amp;#34;helvetica&amp;#34; ; font-size: 12px ; font-style: normal ; font-weight: 400 ; letter-spacing: normal ; text-align: left ; text-indent: 0px ; text-transform: none ; word-spacing: 0px ; background-color: rgb(42 , 42 , 42)&quot;&gt;&lt;br&gt;&lt;/div&gt;" style="rounded=1;whiteSpace=wrap;html=1;labelBackgroundColor=default;fontSize=18;arcSize=6;" parent="1" vertex="1">
                    <mxGeometry x="50" y="510" width="1040" height="286" as="geometry"/>
                </mxCell>
                <mxCell id="24" value="&lt;div style=&quot;color: rgb(240 , 240 , 240) ; font-family: &amp;#34;helvetica&amp;#34; ; font-size: 12px ; font-style: normal ; font-weight: 400 ; letter-spacing: normal ; text-align: left ; text-indent: 0px ; text-transform: none ; word-spacing: 0px ; background-color: rgb(42 , 42 , 42)&quot;&gt;&lt;br&gt;&lt;/div&gt;" style="rounded=1;whiteSpace=wrap;html=1;labelBackgroundColor=default;fontSize=18;arcSize=6;" parent="1" vertex="1">
                    <mxGeometry x="480" y="195" width="600" height="265" as="geometry"/>
                </mxCell>
                <mxCell id="13" value="" style="sketch=0;aspect=fixed;html=1;points=[];align=center;image;fontSize=12;image=img/lib/mscae/Docker.svg;" parent="1" vertex="1">
                    <mxGeometry x="1005" y="205" width="65.98" height="54.1" as="geometry"/>
                </mxCell>
                <mxCell id="33" style="edgeStyle=orthogonalEdgeStyle;html=1;exitX=1;exitY=0.5;exitDx=0;exitDy=0;entryX=0;entryY=0.5;entryDx=0;entryDy=0;fontSize=18;" parent="1" source="15" target="32" edge="1">
                    <mxGeometry relative="1" as="geometry"/>
                </mxCell>
                <mxCell id="15" value="" style="shape=image;verticalLabelPosition=bottom;labelBackgroundColor=#ffffff;verticalAlign=top;aspect=fixed;imageAspect=0;image=https://nginx-extras.getpagespeed.com/assets/nginx-logo.png;" parent="1" vertex="1">
                    <mxGeometry x="560" y="300.5" width="70" height="70" as="geometry"/>
                </mxCell>
                <mxCell id="44" style="edgeStyle=orthogonalEdgeStyle;html=1;entryX=0;entryY=0.5;entryDx=0;entryDy=0;fontSize=18;" parent="1" source="25" target="15" edge="1">
                    <mxGeometry relative="1" as="geometry"/>
                </mxCell>
                <mxCell id="25" value="" style="rounded=1;whiteSpace=wrap;html=1;labelBackgroundColor=default;fontSize=18;arcSize=6;" parent="1" vertex="1">
                    <mxGeometry x="60" y="240" width="310" height="190" as="geometry"/>
                </mxCell>
                <mxCell id="6" value="" style="strokeWidth=1;shadow=0;dashed=0;align=center;html=1;shape=mxgraph.mockup.containers.browserWindow;rSize=0;strokeColor=#666666;strokeColor2=#008cff;strokeColor3=#c4c4c4;mainText=,;recursiveResize=0;" parent="1" vertex="1">
                    <mxGeometry x="70" y="280" width="270" height="130" as="geometry"/>
                </mxCell>
                <mxCell id="7" value="Page 1" style="strokeWidth=1;shadow=0;dashed=0;align=center;html=1;shape=mxgraph.mockup.containers.anchor;fontSize=17;fontColor=#666666;align=left;" parent="6" vertex="1">
                    <mxGeometry x="60" y="12" width="110" height="26" as="geometry"/>
                </mxCell>
                <mxCell id="8" value="https://localhost" style="strokeWidth=1;shadow=0;dashed=0;align=center;html=1;shape=mxgraph.mockup.containers.anchor;rSize=0;fontSize=17;fontColor=#666666;align=left;" parent="6" vertex="1">
                    <mxGeometry x="130" y="60" width="250" height="26" as="geometry"/>
                </mxCell>
                <mxCell id="12" value="&lt;font style=&quot;font-size: 18px&quot;&gt;Web browser&lt;/font&gt;" style="text;html=1;align=left;verticalAlign=middle;resizable=0;points=[];autosize=1;strokeColor=none;fillColor=none;" parent="1" vertex="1">
                    <mxGeometry x="110" y="250" width="120" height="20" as="geometry"/>
                </mxCell>
                <mxCell id="26" value="&lt;font style=&quot;font-size: 18px&quot;&gt;Docker container&lt;/font&gt;" style="text;html=1;align=center;verticalAlign=middle;resizable=0;points=[];autosize=1;strokeColor=none;fillColor=none;" parent="1" vertex="1">
                    <mxGeometry x="490" y="205" width="150" height="20" as="geometry"/>
                </mxCell>
                <mxCell id="27" value="&lt;div&gt;&lt;span style=&quot;font-size: 18px&quot;&gt;listening&lt;/span&gt;&lt;/div&gt;&lt;font style=&quot;font-size: 18px&quot;&gt;&lt;div&gt;&lt;span&gt;&amp;nbsp; :80&lt;/span&gt;&lt;/div&gt;&lt;div&gt;&lt;span&gt;&amp;nbsp; :443&lt;/span&gt;&lt;/div&gt;&lt;/font&gt;" style="text;html=1;align=left;verticalAlign=middle;resizable=0;points=[];autosize=1;strokeColor=none;fillColor=none;" parent="1" vertex="1">
                    <mxGeometry x="560" y="385.5" width="80" height="50" as="geometry"/>
                </mxCell>
                <mxCell id="34" style="edgeStyle=orthogonalEdgeStyle;html=1;exitX=1;exitY=0.5;exitDx=0;exitDy=0;entryX=0;entryY=0.5;entryDx=0;entryDy=0;fontSize=18;" parent="1" source="32" target="vd5NY1QZO35afTzQmUpz-76" edge="1">
                    <mxGeometry relative="1" as="geometry">
                        <mxPoint x="910" y="335.5" as="targetPoint"/>
                    </mxGeometry>
                </mxCell>
                <mxCell id="32" value="" style="shape=image;verticalLabelPosition=bottom;labelBackgroundColor=#ffffff;verticalAlign=top;aspect=fixed;imageAspect=0;image=data:image/png,iVBORw0KGgoAAAANSUhEUgAAAOEAAADhCAMAAAAJbSJIAAAAyVBMVEX///8AAAC60F3o6OgeHh62zlLo783V1dVTU1NKSkr4+Pienp7j7MS4z1hYWFjb29uwsLDN3Y6amprC1XS2traEhITh4eHA1Gu/v7/Pz8/v7+9jY2N8fHyOjo4zMzP19fU+Pj6lpaUsLCzHx8fA12BGRkZsbGwODg4tLS2pvVV3d3f5+/EXFxc5OTkTExPx9eHc57PW46Q8RB57iT2NnkdrdzVSXCYNChWtwVacrk5FTSIUFwoyOBlcZy7u9Nzl7cfI2oTQ3pfZ5auIHuS+AAAJOElEQVR4nO2b7WMSORDG2VKkLQJKX4Ba2m6LVKlUq96det5Z/f//qGMXNvPMJNkFSu/uw/P7ZPOy5NkkM5PZWKsRQgghhBBCCCGEEEIIIYQQQgghhBBCCCGEEEIIIYQQQgghhBBCCCGEEEIIIY+hLmy568W8/GCdx3Wbc04e8YthEqG7xnDmNKGrVtJtTa5c1f7x9UX1s0Yz12F31Iy0qsMvrj7Oc+l0tHqvjBfS8w6KD3rvEsuk/OUdnZv2V+GhgMLd1cd5Jr1Gq/cyPfekdOTJy3kVn8fr3UD7q2Gg5WYKYSY6q/fK2A+8m3potAtiS+8s0j7wvjdT2IX3tp5CGM3Af5hPaFZqF3aBlr3wzRTiQKstQvjnkrpfFCBg/y78PSvsb0khLLa1jOk1jGVZ9CY62I+fPn1MXvsPiffIeLUdhWAa1jKmLW8kUGL4PJ7zKXlhn9EpFZgkra0oHEi3kDHdm11eXoXc8Cs7kAM9us5xr9Wa5v/8bTz++nY8/v0P84i0QqBd2BsqhG52VbjaXqAfmIihN94btxyO5399mc9f8nX81VmkBadazfSo2R2+2FNleituqBBNjV+5cCaBHYQztohoZvD7YLOOMoXfsol8a8zjBLW49dO9wmJlgDdVCMvNDyOXlb6VBccwywtwRtSqHuXT9+fb8Wf9nBNUcg0VuDtn21AIBsI3pssK3wYdSa+zvAD2s1ntybfxeGdnPP6un4NTqJ8Pq0FJ31ThUPp5xq6Irider2PbC17UwDb9a67vy3ylJlMpvQAZ5vG4HHAnbqoQdpRnTAtXcuP1Aje6WJMQfZ3qptmC/vjdzm6aRDtgHUrZVCEsij1bdVnUeFEljG9RULKdM9uxO2kN1HHxtbQ/84ZU1LxpYZeNFcrbf2dqZLlYfwE/tjSQYB+swubQd6i4SP3a3kK5sQtK4UvHM9Xotn+4pO8q4HhhlotYj3MzBIjZRp7CVeJbeIB9r7X81U79SF0pbBc0nmuFDVfhFILZvtaPnEa1t7w+sEpjByUEgsXjQHUwmaEU7hR4Cl2FTK50NIsRVpLxF2Dql9rBuK5ylIbYZVDd+rEKxS5qT4bHPePjxDoVp8oUGq+QgLqLLo+nUAgrRjVWhwVVAx6mcHGYmPJssge4vLvKxmspfB9SCOGIMhLg80yECLProgRsvFc1i2BoAkHv1hVCTzQS+jikNheYX2fRVSCdtMo1wgP8eGn7CmFTpNAWT/EmiwNmxZU1E820zKSuaZcerVB8GQSONguGp1EX62DcqI92GcdRkeCHWrE221TYcz1xU4C5y8CwPDgDJ0mAiXGxSyA+8ML91RT211IIx4v4gOH4Cj+FziwNSZzPZMB9n4efsAWFfwcVQpAoo/HGK+3B+KpMSiy7u+9FYLA+gnnUbSus3QTeqJcIk/Umq9rElMe2j9NodiRU/TsKxdLLvipKnFGQ+FHE2+QVeAGDDgjDCruzfY/XYvxWUvgsrDD1h+x8RbdI28p8yRrzDGE9mgNVaaiwQutwciRAUgoP11MoMYo7zbsFJ7ur2KOwbQNLrAunjMhQlUIwtk+oEMKXIg6+cj/g7EoRDoDpDUYuFykc4AE4JkEp2NInVAjWu2me1pMoufit1DVWyT6k3vL9P844JEXhXLYNhT8iCsXOLx2wMxlN+H5yYBtPa3FOU4l8lkjkB0E9ePxtKHweUSg2cJkWcpupBqer5YKSCa+IR+rWe7j5gjAdjNVTKuzaB+Kfzqwu1MOmrf4epz9IXRbF4ch7M4Uf1A9+iCiErZ//6YxJCyXd2R+qFDjvrNxHEQKlUgQutd5rLUlDKc7HKZQ9kxtTtzBzw+N2Te4vJGa7XEGhDo6KZQpxX/gh0qlKYdsobEcUivXIDZ57hXmli9Ja6q9glswHT9JFDwzrt6vwV0yhmJrM6xkH4fZHfhoUK7HisUBeiTvQo+rg/aY1FP5SHe9jCsXUZK/ZfVlaGjpXmfkL8WUr3r2CCXOhG3iS4HtaQ+G96vgyplBe6mUNpmnp/53vGNQ8o7QC0sOdsMGYBp1qpcKHiMKHmEJxcjc4pGVlCqORGQkkDQ+uQw5E7hG5IAhMTfBFVSsslLR/qo7uzOEpFFNzKku2WFRO1Q0mqDCHdFEfpNP9JPxVSEy/m0PciKET4hoKH1THRlShmJqmmAaXenM3e7oyn7iB4LNtIPsk12bkCAUbMZRPrFQo+62N/f6OKxRTcyTf9vxkaA8y5GBoIJIOZAdDYuRFBS1WpcKfst9uoZ8UewplGCNvG4JxnUHSEDpjOtgbLaTwj0OFoTuDEppXK8TAVKbQV+iWzcTtNAmoZDwHzmygoYGLC/65H2JTCNXxoOzdhABTG1Eonr19KP0+lCl0pubSPR4y4G4jynCVoYHh2m+6OFtgaYclXXBJRBQ+hw33vmhxCwJ9hWJq3CzBeJxquU2oPLVKXejx4gVLLJ/FunTVlcyIQjAp7X7R4rBdpjBwORRqB36tsg/64AOTf4KXalUgO9Rdis9eXf2JB/romwogpn2YG5vb/rws7g/157EcTBVeeLXGouisxVVveFI/6TZTnZbSk2tSVp1RrzXqmG8JkVT7LoZnc4mNh/v7h8a8pPGjRKF3XRc/RNW8lIS54Br8amEw2dWD6h4qE6QVPsM9t5NdTcj/IXPb+GEVejl5cz3NYP1e5A47Yv3edWUPvANo79P0d3zmnqNEoZevVrVDW+sdCaruwwZux8Uv3QYEWoU/Gp7AzObsxBVaU2Mv4Bn8L0oz20QT+hRaPvHmY7m9E/XQtgozv9GPK7TbItXVNgEaGG/pLIa/9aYlPWzo4N362jES85SN8xgmCZdhjImZJLOivJv0Gb0kSuwSedMaz4KOF616Cm/7uFDbi0lzNtakNzKMqTG1ZhGHczR148wKJiU3wYKf5DqBI0rg5t59o9Fe2tLGy0UE/jNycMzQpsY70+ghxHI0py3PryTT0v+RVjsd3ej2573gLaLQ3cTbD4eNjIdfRej2q1/gK9SzlNpqvctKBn06GBVtrzpnveEKV6SGo85C5flkdBRL/8T+79rtbaSDTxPx1lVdVa/80C1yIPwXP08IIYQQQgghhBBCCCGEEEIIIYQQQgghhBBCCCGEEEIIIYQQQgghhBBCCCHk/88/AgaKF7trWPIAAAAASUVORK5CYII=;" parent="1" vertex="1">
                    <mxGeometry x="768.75" y="294.25" width="82.5" height="82.5" as="geometry"/>
                </mxCell>
                <mxCell id="45" value="&lt;div&gt;&lt;span style=&quot;font-size: 18px&quot;&gt;listening&lt;/span&gt;&lt;/div&gt;&lt;font style=&quot;font-size: 18px&quot;&gt;&lt;div&gt;&lt;span&gt;&amp;nbsp; :5000&lt;/span&gt;&lt;/div&gt;&lt;/font&gt;" style="text;html=1;align=left;verticalAlign=middle;resizable=0;points=[];autosize=1;strokeColor=none;fillColor=none;" parent="1" vertex="1">
                    <mxGeometry x="771.25" y="390.5" width="80" height="40" as="geometry"/>
                </mxCell>
                <mxCell id="46" value="&lt;div&gt;&lt;span style=&quot;font-size: 18px&quot;&gt;proxy pass&lt;/span&gt;&lt;/div&gt;" style="text;html=1;align=left;verticalAlign=middle;resizable=0;points=[];autosize=1;strokeColor=none;fillColor=none;" parent="1" vertex="1">
                    <mxGeometry x="650" y="310" width="100" height="20" as="geometry"/>
                </mxCell>
                <mxCell id="48" value="&lt;div&gt;&lt;span style=&quot;font-size: 18px&quot;&gt;listening&lt;/span&gt;&lt;/div&gt;&lt;font style=&quot;font-size: 18px&quot;&gt;&lt;div&gt;&lt;span&gt;&amp;nbsp; :5000&lt;/span&gt;&lt;/div&gt;&lt;/font&gt;" style="text;html=1;align=left;verticalAlign=middle;resizable=0;points=[];autosize=1;strokeColor=none;fillColor=none;" parent="1" vertex="1">
                    <mxGeometry x="931.8199999999999" y="390.5" width="80" height="40" as="geometry"/>
                </mxCell>
                <mxCell id="49" value="&lt;div style=&quot;color: rgb(240 , 240 , 240) ; font-family: &amp;#34;helvetica&amp;#34; ; font-size: 12px ; font-style: normal ; font-weight: 400 ; letter-spacing: normal ; text-align: left ; text-indent: 0px ; text-transform: none ; word-spacing: 0px ; background-color: rgb(42 , 42 , 42)&quot;&gt;&lt;br&gt;&lt;/div&gt;" style="rounded=1;whiteSpace=wrap;html=1;labelBackgroundColor=default;fontSize=18;arcSize=6;" parent="1" vertex="1">
                    <mxGeometry x="480" y="521" width="600" height="265" as="geometry"/>
                </mxCell>
                <mxCell id="50" value="" style="sketch=0;aspect=fixed;html=1;points=[];align=center;image;fontSize=12;image=img/lib/mscae/Docker.svg;" parent="1" vertex="1">
                    <mxGeometry x="1005" y="531" width="65.98" height="54.1" as="geometry"/>
                </mxCell>
                <mxCell id="51" style="edgeStyle=orthogonalEdgeStyle;html=1;exitX=1;exitY=0.5;exitDx=0;exitDy=0;entryX=0;entryY=0.5;entryDx=0;entryDy=0;fontSize=18;" parent="1" source="52" target="68" edge="1">
                    <mxGeometry relative="1" as="geometry">
                        <mxPoint x="770" y="661.4999999999998" as="targetPoint"/>
                    </mxGeometry>
                </mxCell>
                <mxCell id="52" value="" style="shape=image;verticalLabelPosition=bottom;labelBackgroundColor=#ffffff;verticalAlign=top;aspect=fixed;imageAspect=0;image=https://nginx-extras.getpagespeed.com/assets/nginx-logo.png;" parent="1" vertex="1">
                    <mxGeometry x="560" y="626.5" width="70" height="70" as="geometry"/>
                </mxCell>
                <mxCell id="53" style="edgeStyle=orthogonalEdgeStyle;html=1;entryX=0;entryY=0.5;entryDx=0;entryDy=0;fontSize=18;" parent="1" source="54" target="52" edge="1">
                    <mxGeometry relative="1" as="geometry"/>
                </mxCell>
                <mxCell id="54" value="" style="rounded=1;whiteSpace=wrap;html=1;labelBackgroundColor=default;fontSize=18;arcSize=6;" parent="1" vertex="1">
                    <mxGeometry x="60" y="566" width="310" height="190" as="geometry"/>
                </mxCell>
                <mxCell id="56" value="" style="strokeWidth=1;shadow=0;dashed=0;align=center;html=1;shape=mxgraph.mockup.containers.browserWindow;rSize=0;strokeColor=#666666;strokeColor2=#008cff;strokeColor3=#c4c4c4;mainText=,;recursiveResize=0;" parent="1" vertex="1">
                    <mxGeometry x="70" y="606" width="270" height="130" as="geometry"/>
                </mxCell>
                <mxCell id="57" value="Page 1" style="strokeWidth=1;shadow=0;dashed=0;align=center;html=1;shape=mxgraph.mockup.containers.anchor;fontSize=17;fontColor=#666666;align=left;" parent="56" vertex="1">
                    <mxGeometry x="60" y="12" width="110" height="26" as="geometry"/>
                </mxCell>
                <mxCell id="58" value="https://localhost" style="strokeWidth=1;shadow=0;dashed=0;align=center;html=1;shape=mxgraph.mockup.containers.anchor;rSize=0;fontSize=17;fontColor=#666666;align=left;" parent="56" vertex="1">
                    <mxGeometry x="130" y="60" width="250" height="26" as="geometry"/>
                </mxCell>
                <mxCell id="59" value="&lt;font style=&quot;font-size: 18px&quot;&gt;Web browser&lt;/font&gt;" style="text;html=1;align=left;verticalAlign=middle;resizable=0;points=[];autosize=1;strokeColor=none;fillColor=none;" parent="1" vertex="1">
                    <mxGeometry x="130" y="576" width="120" height="20" as="geometry"/>
                </mxCell>
                <mxCell id="60" value="&lt;font style=&quot;font-size: 18px&quot;&gt;Docker container&lt;/font&gt;" style="text;html=1;align=center;verticalAlign=middle;resizable=0;points=[];autosize=1;strokeColor=none;fillColor=none;" parent="1" vertex="1">
                    <mxGeometry x="490" y="531" width="150" height="20" as="geometry"/>
                </mxCell>
                <mxCell id="61" value="&lt;div&gt;&lt;span style=&quot;font-size: 18px&quot;&gt;listening&lt;/span&gt;&lt;/div&gt;&lt;font style=&quot;font-size: 18px&quot;&gt;&lt;div&gt;&lt;span&gt;&amp;nbsp; :80&lt;/span&gt;&lt;/div&gt;&lt;div&gt;&lt;span&gt;&amp;nbsp; :443&lt;/span&gt;&lt;/div&gt;&lt;/font&gt;" style="text;html=1;align=left;verticalAlign=middle;resizable=0;points=[];autosize=1;strokeColor=none;fillColor=none;" parent="1" vertex="1">
                    <mxGeometry x="560" y="711.5" width="80" height="50" as="geometry"/>
                </mxCell>
                <mxCell id="64" value="&lt;div&gt;&lt;span style=&quot;font-size: 18px&quot;&gt;listening&lt;/span&gt;&lt;/div&gt;&lt;font style=&quot;font-size: 18px&quot;&gt;&lt;div&gt;&lt;span&gt;&amp;nbsp; :5000&lt;/span&gt;&lt;/div&gt;&lt;/font&gt;" style="text;html=1;align=left;verticalAlign=middle;resizable=0;points=[];autosize=1;strokeColor=none;fillColor=none;" parent="1" vertex="1">
                    <mxGeometry x="878.96" y="711.5" width="80" height="40" as="geometry"/>
                </mxCell>
                <mxCell id="68" value="" style="shape=image;verticalLabelPosition=bottom;labelBackgroundColor=#ffffff;verticalAlign=top;aspect=fixed;imageAspect=0;image=https://streamlit.io/images/brand/streamlit-logo-secondary-colormark-darktext.png;" parent="1" vertex="1">
                    <mxGeometry x="770" y="620.25" width="297.92" height="82.5" as="geometry"/>
                </mxCell>
                <mxCell id="71" value="&lt;div&gt;&lt;span style=&quot;font-size: 18px&quot;&gt;proxy pass&lt;/span&gt;&lt;/div&gt;" style="text;html=1;align=left;verticalAlign=middle;resizable=0;points=[];autosize=1;strokeColor=none;fillColor=none;" parent="1" vertex="1">
                    <mxGeometry x="650" y="636" width="100" height="20" as="geometry"/>
                </mxCell>
                <mxCell id="vd5NY1QZO35afTzQmUpz-76" value="" style="shape=image;verticalLabelPosition=bottom;labelBackgroundColor=default;verticalAlign=top;aspect=fixed;imageAspect=0;image=data:image/png,iVBORw0KGgoAAAANSUhEUgAAAgAAAAIACAQAAABecRxxAAAABGdBTUEAALGPC/xhBQAAAAFzUkdCAK7OHOkAAAAgY0hSTQAAeiYAAICEAAD6AAAAgOgAAHUwAADqYAAAOpgAABdwnLpRPAAAAAlwSFlzAAACAAAAAgAACXnjdQAAAAJiS0dEAP+Hj8y/AABpUUlEQVR42uydeYBN5f/HX7PPYMYeY5mJbIVChRprFCqFFkuhQoy+kai+36iIdgnZioo2URFFCzEhS4VCobKMNWsGM2OZmfv7Y86cOefcc+89995zZ+71+7yef7j3zL1nzpznc57ns7w/IAiCIAiCIAiCIAiCIAiCIAiCIAiCIAiCIAiCIAiCIAiCIAiCIAiCIAiCIAiCIAiCIAiCIAiCIAiCIAiCIAiCIAiCIAiCIAiCIAiCIAiCIAhCyBNOnDqi5HIIwv8PIkjkdkbwHitJI400fuALxtGXesTI5RGES3nyt2Aq2zmHw2nkso8lDCZRLpMgXIokM5Gj6oTPZANvM41pTGc1p1QzsJF+lJWLJQiXFvVYpU7+i3zJ7ZQlTHkvgbZ8wRn13bkkyQUThEuHaqxRp/9pRlHG6YhY+nFMPeZ7LpeLJgiXBmGMU6d2No8RaXpUOD04oR63gHJy4QThUqAhB9SJ/SGxLo+L0BiKHB6TCycIlwLD1Gm9nyZuj6zF3+qxG6kkl04QQn8DMFud1LNUxx8utgHva9YA98nFE4RQJ5YVqn//Xo9HD9HkBoyUiycIoU4cacqEPuFhAwCQqjEAc4mQyycIl4oB2Eg5IIyyJCmjHNG6zUICL2oMQBpxcvkEIbSJZKFmQl/HS2wgXRmbWMIMRjKIVAbzBj+RKQZAEC4tJikTeg3xvGdSB+BqLHMTMhQEIUS4l4s4cHCIekzxwgBMlEsnCKFPbSW6f5EeDPfCAAyQSycIlwLjlSn9FU3Za3H6H+M6uXCCcCnQhIM4cHCOcbxKniUD8I24AAXh0qCwHOgsizluyQAMk8smCJcKiaxVJnYeuRam/1EayUUThEuHVuz0wgG4SDYAgnBp0c6yCcijv1wuQbjUuI7VllyAR2koF0sQLj2qMoMsjwYgXVQBBeHSJI6BHBYDIAj/f7mLPR4MQLJcJEG4dOniNhsgk45yiQTh0iVcIwBqNiYTLhdJEC5dkt0GBU/QVS6RIFy6RLPU7RrgAA+SIJdJEC5VpnuIBZxjMX2oR1lTbcAwYjUtxuNkyyAIocVMCylBORxmI3OZyjTDmMkypcF4GmmsYDbTeIpGlJYLKwjBTzyrvagNsJpCfIw1PCR1BIIQ7LTkX9sNQEH/wbcoLxdYEIKXEnwaoOmfvxIY66EHkSAIxcgDJhUB5/iZkzaZgL3UkYssCMFJO/Y5TdkMUmnMHy4mdC4n2chKVrKef7jg0QBcpItcZkEIzulvlgL0O4+zzkWx8EFGcy1liSWWBK6iK+9zzoMJSJULLQjBRjhd+MvFM96VVNgZkz7BXTgjBkAQQouSDOGY1/v51cRrPiOGWoxUVIbdDdEUEoSgohJTOO+DQ28rQxhEKqkMYgSL2E+OhVBge7ngghAshNGUVZb0gO0Zh7hSLrogBMuzfywHimzyO3DwKVFy2QWh+ImiHWlF+OzPH4/JhReE4qcyr3OiiCe/g/PcKZdeEIp735/C6iJ/9uePZVSWP4AgFB/RPFzE+359NcAnXC5/BEEoHkrwLGeLbfrnj7XcIq5AQSiOxf+TPkX87R4neYMmYgQEoWhpSHpAlvWnLTUW048jzOYekomRP4sgFA0TA/I8P8rdDGEVp3yICuzlS57nZmq6UBgUBMEm4lgZEAOQ3zCsNCk8wRL2+BBfyGI/m5jLFIbTiZbUIV7ERAXBXqL5IoAGIJ8YrqAvs9hMpo+fdo5MDrKW2UwklfbUp6T86QTBDu4ISATAuWNgBOXowAQ2eiwO9uRdyOYIK5hMH64hVv6AguAPJZgfAAOQQXPTbwunHDcxi/02JB3lcJQF9KSC/BEFwXfqsjkAUYC+br4xkrqMZr9NqcQ/kSodBgTBd27liO0m4GUP3xlGI+aYyI36Mi6ygGvkzygIvhHGq7YbgDUWugXGMtS28qOtNJU/pCD4RmMf5L/cj7N0sPC94XTjH5u+8RdqyR9SEHyhDOttXwNMcxu3L8eD9OUqIhnuUTXY6phFtPwpBcEXpgVA6quxm++7nH04OMg07rHNCXlK1AUFwTeG+DjpzrCZBYxUpEAHM5XNanHRLDdZ/dXYpab5XLTN6LwtbcYEwRdSvZxquRzlG0bQlnK6Gr5wKtBPaSdymrtcfl8MXwYg/2ALFeVPKQjeM9KrPP21PEkjN629r2ULDhzs4HqXxzwXkCKkBvKnFARvCWO25X32XLpYSLy5WYkrrOUKF0c0C0DT8Rx6yB9TELylLL9Yer7OoBXRQBz16cMTTGUa05nEEFLpQTOqU5I44oilBB8qP7WCRqbfmcTeAKwBJpBCXcoSI94AQbBKQ456nPyTaUQEZUnhOVZyyCmbP4cMdrOGNNJIYyW7Nc1Eu5psFxJYFwADcIFMDrGRZbxCb2oTKX9cQfBEf7f6Pef5inupRzfGsMkHkQ8HmcziOoMRKMtGj2XAWWT5ESPIYR+TuUnXr1AQBAOxLPDg9PuJ3znkZ7juGF8zho7UIZnm9Oddk8LgbPbzC+8ynEEMpBOtaM09zPXre0+zjG5uHJaC8P+cbkWoCnyOQ6STYdhAXGQnnzOC26lJWacMwuE2JCbPp40IjAmCM6X5qhjVgM+xmQncS3WXisARfGzLNx1jnLQgEQQ94fzPxkw8bxQDMtnMBG6nggetvyvVnEF/Ry7ruEmiA4JQOP17cbzIJ38W25lOWypakPksyUxbv/sfRlFW/vCCAJH0t70M2P1TP4u1vEoHEi3ux8P4HxdsPouLLBXtAEGozKucLqKpf4GjfMWztKG8lyuUFwNyPrt4UOICwv9XoqnFo/xMToCnfS5H2ckiXuMurvZSwTdSWSNUYlmAtiHvu8hQFIRLkjDiSaIjQ/iI/QGd/GfYzXe8SX8aUtlHkY5EBikVB834O0DnuZsHKCE3hnCp7/Qr05SnmMlq9vrcnMPKDv9ftvE+j9KWam4W2AmkUN2j+y+aD3lfKe69x6fsQ2vrgEW0knRh4VLlMh5mPjv514dWnd5M/J28ywCaUdGjcy+WqZxhB8M9+uKH4GA6pYAInghgB+NjzOA66UssXGqU5zF+sd2Hrm/pvZ73SaUZlS0/RW/gpJKnP5cqbo/swkUuMol4IN5DsrL/wcGPuZtq0n1QuFRoyBcB2ufnksFm5vEoN1JKmTJRxJFIE9rQWh1taEI5Jw9Af80nzXDriW9NFg4uMokEoLXHekX/IxXbmcMYOpFCdWIlYUgIXdqwPQATP5PtfM5gmin5+pEkkkJPXmcpq9jBSbLJUkc2J9nEUobrtIMG6dKAH3HzO9yoFAtdZD71ieaDIgpZnucsf/E942hjKVVJEIKMRoogl335+n8zm1RaUJkIIIoa9OZFlvIHZz2uM3I5xhIeVHr43aLrBvQnV7r8LVppHJbpPM94G/oJ+pKsfAsJYgaE0KEc39i4LN7GBG4lmXAggsrcxSt8zx6vJ+NF1nIfcSTyh0Ut/y6GGoVsGxyZ5zQrlCyyOMpe0snQrVyMCgRnWM8EOhAvmwIh+AlnpE17/1MsoAeJQDiVaMtwPme7X974LD6jObMM1fq3ufhNhvhpuo6wl71sYIEqW1agMFA4GpBEMs10vovW9CCVkUxjKnPUroln+ZGXaEEZMQNCMHM1B23Jl/+adsRSlgY8wHR22KYYsI+5BiGQ76lk8ntEeV0EfI5D7GIlM5nCCLpQnySSSPArwBdm0C4+xQZGco2kDwnBykhbpv9MuvIks/mNY7bvvC84lR+/ZBJEvNJS+/AcjrKL73iBgXSkDpVt995XIs3JN3CUrxlKLUkgEoKNCmyyRVx7f5GVCeXvsgc5TdunPdYYzGUE3WlAVTXGEEknJjGDgZSz8ZreZ6qXkEM6s+looQeyIBQZDQIeLQ9UNt4g3fO0k6lk+Fm2sZRn6cPVJqlHUYwiQ1lj/EhH265pHdLd6A2uYTh1JUogBAcdLXXazWEXSxnPcD4rFjUg86k0lbbUpDr1GaCRFHeQwyk2MIdHactlbkqLUnTSJoe42+SYUtzEq0xnEvdYlgUpwQ8ewoXpTKWN+AWEUDAAF9nIIGoSBSTwWEBThb2Pu+9nL0eVKEYOGWxmFj1pSmmPNQaRvG/4vO3UMxxzDYtVB+Q2lx2LjMQ5eQHMYyZf0YFScgsKwbwF2McIxedenkf4xdJ6oahHfsbhfHrTlPKWlXxLssbpk2bofrqj0rLUgYPj9LZ8Ta0ZgHxfxnd0kZWAUHzEu5HPOM0s6hNGGNV5ml8CWF/ne3xgH/MYRgsSvQ7e1WKf0+elU0d9/wZFWjSHE16WAJuZFncC5Iu41UcNBEHwm26ma4ALfE9nIkmgAxPYGsDiYN+e+cdYzXi6Ucfn0ForXYpxQVZ/J/UpvoitTGcSfWjk5TPazLR48mfM5jrpQiAUB2H04C/dBM9iHQO5guaMYFUABUF8GZnsZB7DaGih37B7mikRAP14Wnn3Jo6bOgWtcKtPG6XDPEtVuR2F4jABtRjCInazhzW8QX8eZAobA6aq45vD7xjrGUMHEm1Kp0k2DdaNUt4dyjla+/jJE31e12zidlkHCMVDFIk0pDtT2VyEjb+sZBkeYhGpNLY5q748n3LMaWvTX3k3lcM08OlzG3m9AdCOE7zIZXIzCkVNJNfyLKuDasGfyUam0oPaJnvwSOKoSDJJJFGOWJ8Sa0rSiFTmsUnRJdjDTC5X3ktilE+bjHBe99u/sVy6EAhFSRzteDeIMgJzOMpKxtCBcrqJHUV5mtKFcUxjLmlsJZ100tnICuYwhaG0IdFrf3oU5WhCG1pRQ7O5CPNxKd6ZEzZcgb+5R+oGhKIgnm4sCZrd/jl28jn9uJoSuuV+ONW4h3lsJsNNIlIeWeykRzFezQb86uNvvo2pTGUuP5DOBRxkMFRkR4VA7/pb8nlQpPbkcor1vMmtJj1/w6nLOHZYykA8z1J1EV/01GODz1dghrqxqU13lnCaTJ4QEyAEjjpMKYY2n+biYYNpRmnTfXwC/2Wf6qo7x3ZmM4U3mMonHFJfzyWLXcymO2WK7Xo2Zp0f1yGdYRqfQxzd2EYWo8QECIHZ9ffh92L27R9kBWPpyOVuHHhVmKcUH51iAxO4VdMgJJKGjCWdH5lMf1pToxgr7CK4xefFf+EVWUBjze/QiDVk8oTkCAp2k8wMkyy4olrsH2U907if2pT0cJ7RTOU8+1nBOBfSWpHUCYLW3ZUYZYvrz8E+Bmg6IjZhF2fpLjesYB/htOHnYvHsH2YL75FKQwvx/HhSSKQCD3ALNYK6Yi6OTqzTaCrmcZI9rGelEqU46qU+UhYzSFY/fRwOdnO93LaCPUTyAIeKdOJnc4A1vEBv6nmhmf80WTwYAhupDizWJBRf5FdG0JTqJBBLHBVJoiF9eIUNJilHrsfPtFO+oR3ZOFhmqoEoCF5SkieKKOB3jn2s4X2GcDs1vU6oiWIxp4M8GeYyerFEV01wmmeobLq2CaMMjRjKAkuqhQ4cHOQhYoA6irl+URKEBX+JZ2LAxDzyyOQP0viEsaQykI5cQUk/btpeDNHshYNrC1WaFEazwXAtM3nMY+pOFPUZxjccs6QU8AoVqK0YgMPcIDew4A/RvBqgzn8X2cLLtCGRWI9TIIwY3TOyEj0Yz2QGc52u618wKulHkcjNjGc9GSbL+beIsbxxuJZX2OIx/yKPBfRXU7PnBalBFELE9fefABX47GeEi4Wv8znUZQxvanz/tflBNUrH+ZKWQSmVGUF5mjOYz/nDZezkMNd69ZlhVKYz89jndk2Wy3HVhfgvLeU2Fnylh01hKuP4kessPq3jGMIBHHylxrUjmOzUcntoUGXAR5JMX2axmQwPvvxZPm13oqjNfcznkKW12dtSHSD4xnX8GaC9/3LLpas1mMb3TKax+koJvnb6vJPcERRXrAQN6M88/rQUxMuig1+bsyvpzSy28K/LSMEpFnGTOAIFX7Cj9ecFF20/8phhOUQVbtj/QzsTr/icYt7/l6YRQ1niVfz+DxJt2KRVpClPMZP1pLOfs2SRzQn2soY3aCnCoYKvDPe5VVcep9nNl0yip8sq9xzWc6/PGfgd+F63rz6uCnIU/XI/kY48w2qvIvb5Y5mNDrowypJETVJoTRuaUF16DAv+cJWuZYb1dN1fmMoAWlCdWCCSz9wm+/zII1Sx9HxNJlmXEJRAR0axkB9YyjhuKPJ9biSVacazzGenz2Io0+Q2E4KTGGZ4dSufZB0T6ENDyuo88hXZ6jHV91ddHrvZvvph1rCPdLYwk6669KAo4iyH0ewgiiqk0I1XmcdON3tvayNVbjQhOEnhX8vhvCU8wY3Em4biktx0u9PmwnV2s8cdoYt8n2MRNxTp4jacsjSgPalMYiHbOet1WtQFjnDQqTtCNu3lRhOC8/k/05Ly3lpGcpXbstOy/OLRE76W/7pxCLYwyX/bR5+A1rtHEUdZmtCWB3iNOfzCUbJ9etrn8TcT6EJ9atOFd3VB1Syf1YMFIaBc7zHp9AyL6GTJhTfVQ5+7h91m/Eczz8WaYYhtu/4Y4oijInVpRVv6MI4vSGMjJ8n22Q1a0Db0Ba7QrFYiGKBJqxIDIAQpz3ko2PmMmz3W5Bdwj9sF8yoPXe+TNF329CODPpZ/n2gqci19eYTXmM40pjGd1xjMECYxg6X8QBpbOUym31Ne6xWZRhOnbVGUxrciBkAIShLcdqj7i0Fe1dlX5jc3n5ZBN7c/nUh/RjCV1SYZiXs81rtHk8ztPMNStnHStqltpih4iD2s5ztm8iEzmM5TNHexNbpBlVMTAyAEJR1cZv/n8p1T7noktenNOKYzlSe4l1pON/7DZLuZPL/TwcJ+PoEUPuSk4Wc/dPmT4dSkD3PYG0Dp0jOks5qZjOQO6lCdBGIsiILH8LkYACGYGeVy+n/k5KxLYjz7NBnpFznIh9xGvOaYWKa6daCdZApXWvDrR3Ezq3WfdJirTY6LJ4UJ7A7YEz+/y+DztCXJp2SbfsrvIAZACEJi+MrFjf85FQzHNmKVk9f7IJ8zWCNOBVCBDz1Mxz08pivrdUUVntU5KI35f+XowzLT5p32dBlczTN09LPLYF0OigEQgpUqbDG9/X+ltuHIBmxyWs4/Tj3TZXk5XvNQVpzNfZbOL5IbmatWGPxX885lDGZdgKRLjvApqTT2u7MwQClWiAEQgpVWpilAWdzvZCiWGY6Z72Qi9A65nmxwuw5Y6SEioN1U3MwrLGcVXZVXKjKYDYoQuN0OvrU8R1Nb8w4miwEQgpW7TF12y5wm59OGff3PhmW/GZUZwS9kmngEctnPWMsGACCMWOKIBErQTSMQYu9YT+8AyIf3J08MgBCcPGEyPXN4yHBUTXYYJrDVarwKtGEcy9lGBtlkc5KtLOcp6vq0r46iFYsC2Jl4I3frHJr20JwMHOQUazdCQTDlKZNpsJsahqNGO20RvHmahRFLJZrRhjY0oSKxPub212GKbYpFF1xsILJJo68te/9CkpUKCSkGEkLCAHxiiG5XdHL/Ff1ytipPu8wS9GW8Ti8ms4bTJn6K8yznFht1dQpKpMbJ7SaEggEw1q23cVp0X+TeIjzHBO5ng5+luMYxEICyNGcY89jpFLM4wX9tk+8oMAAz5HYTQsEATDEcM87kmPd8fkKGUYJqJCnDU41BHO340vb8vixu0XxHJFVoy/N8yW5Oq4Ym27Yle4EBWCoNPIVg4xETf/obuiNKsNJkCh2jlVffE04CSaTwFDNZyS7SSSed/Ux24wyMozNLA5Lmk0Z5k++LpTot6M8oFrKNA3xPZVsNQJql5CdBKEI6mfjU9VuAWuxzoXDnWeYzimHMYBrTmM069mqer4VT0XxSlKWrrp+eneOg2lPP9XlfRjLVbVIfEgMgBC0N2OvBALRyEXbL4zWPS9o40jxMxplOJbTh1GYwaQEq6znP99xaxPKZBQZgvVeZD4JQBMSa1AJ8rROX7uEy6SaTZzw4yjwZgNPcpHvuVudWppLud5pPJutZyUrWs5d00tnFGtJYyuvcY3OIzxsDsJckueGEYGO40/Q5rmnLASPcZvQ/49aN58kALCeeGEpSi9YM5nN22vTcP8d8kokhQXE1VqNkEcmJhjl1NSg0AEdpILebEGw05R+nRN1+mvenelhSf+zmti7BDx4y795mGWvYR5bN5bx5PFYM1zKK3ixx6s5XYAAkGVgIQqKY7zR95muKYaZ5nGw7GeBid5vE3zbX5s9hmEfp8fzxcTG0EO3NaRzMNkQ26ijNu8UACEFJT6ei2iOaPvPTLEy2bL7jPpPuvw/aXLTzHSW5Rqmv9zSmFPl1bKBUTOzhct3rBW7UbNrKzSYEH5ex1mn6FMpvTbOcXf8bY7iLmsq+ux4P8LPNPvwTPM8Hlo48TkoRX8Vwpijffdbw3QVu1Dz6ys0mBCPOT+qTaq7cNC/DbPtJJ529FptZe7+3z7HkBBxd5M3Dmqm+FONSf6R6XkPkVhOCkUR+NcmWu8yFAcjgQ1J5mAkB0uPxf53wZDF0yX1J/f6CFUAFmhOmu4KT5FYTghPnlOBcXiZG9/wq8A90VRKA/mNzgY49K4Sf6GRjJZ9Vymq2UfupCcTzPlOAMGar78yWDr5CcFLFRM8/k4eBPoZpfpCelCacO33oJxzYkcM2nqZ6sVy/1pp6wvWUAXpwgVFAAuvUd1bY2CBcEGzlGdOSn660Icuplu5HXmBPUE3+06xmIFWL7epp10kvA/F8Tx5dgCRNsrVUAwhBSzLbTSbWYd407RxY9Iv/Hew2lS87zY+8xk0kFOPyOpblmmjI3UBTTpFNa6AhR8UACKHAKy6Sb84HwRN+NfWpzTDmsI69pLOVFcxhEn1oFgAZT2+podkO7aMG0Js8JfW3r8ZsbaSc3GZCsHKdxy7BxTV200w5x3xdgWQqElsMmX6u0FZMLqEEMAkHv1DWsDlIl3IgIXiJ4uOgnP65DA3yK9dTE0MZAcTwJQ5mq/8qGFIOJAQ13QLYXNP3cYgrg/y6vabxSfSgQETlNaC6LlYi1QBCUOOs/xsMY41H5cDyVCrWCPs0TRJSE6Ad2VykG9CWM2IAhNBhZDGk7mSTpYxs0+iCZ9/5U6RRsdiumTbVJ3+X/xwOMmiGUW1BDIAQ5DTWBK0C7dh7iQEMoj/taa2M9vQnlRf4WteEfJtH9cGa3B+Ajj5WiVXaf+ZnAdagFN/jYBPliGSBQU69i9xiQjATxzdFZADOsISbXDzbY6jNUHX3fJoWQX7N0jRB01b04hwOZgE1nbIlpTuQEOT0C1DjTVf5e4Oo7aIXb0s1h250yBiAPN5hGw4u0BV4xGlLI92BhCAnydYWXFYy+PfxKf1IMnHjvaocs4WaQXzFtFsAh2I+d1KdCOaSwSFdF8JpcoMJwU0k84ol1r+D8TQxVPEPVt9/0qI7rjh672idgAVjHpFAHZpQS1dQLQZACIFNQJ6NPn5PicT/spcjirLAMZ7T9eyZpB71u1PHYjPCqVMs9XaTnGRRtK3Ar2S/GAAhdEi2aRPwD2/wEHcwkCEs4l8XQmIDqEJ9ujCIEUznFeqr59FI50Ibbyn19wpudpERUIrbuC5AOkG9DZrGy3TdB7SyqwuLXKlIELwknPdtmP4n6aaZinG0Y5fpcS+6mNi1DT0JD2uESl0TxTg6mLxegvGc5x+6B+SKXcMRzZme5Q7D+4OlHlD4/7YJMObvXe3Uf6Agd66H0zM7nh4mOYnzLC3v2/MDTZxevVNRNfghILWDMbyjcQK+4XSehSXBW4sxYUkQLFLXovS2u/EntTSfGMkYl0blCC+TQjliiaUs15LKN2SbegtaWjj3eFbwG00Nr16t/EYnTIyDPdum77iIg1NMpIzTu2X5Rc0UTJbbSwh24lhkwybgS+opz/ZI+nLKravwNJtYyUo2ctJNj6APLLX3GoaDXXTQrSvCeJ6cgCbjVqILA7jB9AwL4wQZamGzIAQxqba4AXcxnCqU4xmbGn0f43oL556/4D7I/boEo9I8znr2WlpF2M8kqQYQQolmLrz23o6LbOMnXSgwh4OsYw+ZHvwMp/nT5NWRFs49UYlinGayIm2eTzjxXGmyQC8KHhUDIIQSZVgfoJSfd7mCUiRxjwf9oXV0NTFCX1vYBBQq9OWxiEZBcT07KUYwm/ZycwmhwGgXu/XfnVSCvfUMNKcC0MWD+MhKOphUJu6kiscz12fm7eaBIAi9tVavWn+5tYRQ4HbTCXqMdiz1eTuQv+g/xTbeZJnHhqNHTDYJVpxoWo3e/GX3jGL3vRcagBFyawmhwOWmyv+naMf/fMoKfJGebLOhiNhz08+qJt6DzXQu1hy8QgMwVW4tIRSI4lPTKbifjV4XDF9gABDOXL8rByd5lAeDa01TjrYZmnb7S32PMiXmBkCqAYQQ4SmvinrcjcNcQzQRvOWnAZhvyYcfQ2926CoN9/Et99osI/6wV7t5MQBCyKENBf7KcI32vfe7/9/4nvmaqjhfxu9cZfnc6zJfrcPPZaKFdYO3dGemFyal0ABIOZAQIlRkizr5FqvZ9MU1TnGXV2efwGhOqq7Dfra3ESnLG5ZKlI0G4IdiaF0uCD4QxnuatJw/iqEf4EWyyCaDfexiiNdPzkjuVHPwT5Bquwmoqiv6tWoAdpIot5YQGgwutqf9FuYwju60pg3NuJyqLnQDPVGD15WEo+P0L8bFd6EBkPZgQsjQUtP1vqie+Vt4iRZU8PJ5fR2PkkoPGlPNUIwbSSveZTfZZARIDUAMgHCJUpnfinT672U4iT71+EkhHQd5ZLCHRYygIxU1nxNJMrcwmE42bwPKWnZLFhqAQ9SRG0sIFd4uwum/3uta/XiqKTKg4dzIIF7mJ6XuMJNfeYOWAXa4lWEiV1g6soeaO5FJK7mtBPECGMcOS6W+eu7ibz5jDB2VpJwwytCUkaxV0pj/ZSl9A6IBVMAkxnp5HXN0gqGCENQ097mS/xjrWMka9ljqOHyBh3w4u6uVcqFzbGA016u7/zL0YimnlU9ewb0ByAPI53a2UM/Cca9pftfBclsJoUI5NvictVeOGEqSzO28zCZdewwzAbHqPpxdaVZrchVPMo92qhGIowOfcFwpLPqMNj7GEdxTgQ08ZeE4bW+A1+S2Ei59L8AZXeS+Eo+61Rl830f33NNOAcTPaaVO9Riu5y0Ok4eDE4z3ych44mFWWmhMOkOagwj/37wAp3mWcppPutdNLqG1SRHlFCGoxmYTneEpmhy9SBoyjG84TS47eND2xiFleNGjYHm0roRaDIAQQviTC5DDN9xNWcKABCaaHnOOC5YnRUseoykJutcGmJqVjfTSTfVSNGMwM5jAbbanA5X3GNmvyFbNuUk1gBBCJPKHX979bH7iZZ5nhYkzMJspdKArUxhu6Vzi+ZB/WcVgaqhbhhhGmZqATMaY+P/DiPUpz8A/kkh30zFBEIKYaJ8VgDyPTUonwDDLC/O6bMFBLrsYQy1lKsfwlFr2o19/zLcYpQ80dTik00quJreVEDr8N2AGwJfFcFdOKF7/vxhDVQAiuIV1pjIlq4NCFLSdrtGJJAMLIUU70z49Do4ynx/cyoDMYTpL3KgA+OIOC2eo0kvYQS6b6KnkAlZmID+q72hXGY2L/QqmGjSVaspNJYQONXRdegt9/D0Io4FLnb/TSsZbNE2Y6SIZyBsDEKvu+uP5QFOafJqpVFbeKU9P5vOnobdQ8ZsAffvwsxZ0DQUhaDCq7OaPH5Xo9yMuWnmtoZT6CSWYaXrMXCIsn0UzBqoTvYpOUziPxZoCm0iS6cssfuKUemY/WcrWCxwzDL4JSQYWQoqXTSbvbiXWXp3tppP7J10OwJXsNTlmgxeSGiWYxm8MUbL+62lyAPPDfvqnfASlacZ/+Io/yMTBymLcd0cyno/4TrNqSZVbSggl+pqoAeXQD4AwF0/387xJDfUJH877JsdkeOzUp039qcIK8tjMCCoDNQ3RiV+oa/Lz0STShmdZxpRiDL6VJJwr2SfVAEJoUl8XxioYW5Qpd78LmfA8/mQO/+EWqhGly4YvHDM8bALaMEjTC6gxf+Igl/XcRxzJvK/TKl6s6wSopxTXB7Qq0DMxfC3VAEJoUpJVptP3e64Hquny3JxHFn+zlN9dNAxp4fabK7CYX+mnTt5HlKKiLD7jGkrSlw2aNKCXvfApFD0jffJ9CEIQMNXF5N7PBIa78AJYG2ketHWbcogcPlHcfGVZqf7kHroTTnnu4E1WsJf9rKNWEF/DTup6RXIBhRBjgNcTezX/YSw/WdAS/lYzbeNIIlGXHhTGYM7h4E8eJg50FQXHeEB5lpYiiSSqWegdXHwUyoJJLqAQYjQzadXtbuTxCbWARKZZ6Cm0mQcoC9RmNunsZD7PkqLKecXzubLsn08HQ0jtGLeHzDUUYVAhZElkp9drgF28QiOqWhIWvcAKXuAnjQHJYCHdlVZgDVQvQ5ZTf6J1XvXoCw4DIMKgQogRwTs+CoN95LOmkIPzfEcHIoBuLqXJsmgdcgYgm3ZySwmXuheg4Fme61fB0HEepyQRjHQhKpZHX8OZViUuyA2Aw6vGooIQgl4A+8YFJlKKeOa4eH8QAKVoriysn+CDYk79BUwkzrQGQHIBhf8HXgDfVgyZ/M5GjmpWDjmMJYwk02yE83QCYphBNpMAaEEGq2yquCvpY8AumtudNA66aNYw4+SGEkLNC/BBEUz/M7xFWxIpSwOe0tQPnKAz0IhNTj9xiCuBMqziHPcDUIIlOHjXFvW/FgwxfT2eym5lTMsyjYqKKSg4bqSPZVCCEBSkBnz676eHLpJ/Iz9riosqA800Lcvzx0olXHgtXdQpfz9ZZHKnDb/zTaxRVIv0y/tX+IM73PzctfyqqBF1V7IcIpir64KUIDeUEFo0Vvrsmk/d835P/xN0NfnOHar4x9PKKz/pNgz/NV2AD+ekLeq7bfiH5k6vJrETB7+7SefpQwYpQCmW86CymVij64IomQBCiFHR6elbOJb5rRyYw0jTRXUvNfL/m6IHUIcPVKXihS4KgGJozC3qMru8z5IgbThBG6dXb+UcDi46xR8KmcQFWgM1OKg0DrmGI6IKJIQyYcx2OX230pb1fhmAxTr9gEJieVeNBtytvBZHJybxKU9qKgXdUZM3fAwNmhuAKcoZvedSYXgGJ2kA3E4OrwLQTRfGPOuxEFoQgo7HXE7fs9xIG/7xefrvcfOMbqiKar+hM0fWBUWT2eTjhKvDFtoaXosjTdUgKOvSABwgCRiiVv+P95C9IAhBTz2dLoA+xWcw8D8XygCeewcMcvu9I5WSou0k+nTeifzNdOVpnaiRKrPCbVxteKU6f6k5/ckuDcAvJAAzcdAXKM9aw+8soiBCyFFGt8w/yRyNQXgbKMdinwzA+x5CdpUU9eGjNPTpvEuwmgNKctAAPuVKL3423MkzkaJ6IDLp6OKn7uYL4ogljdNcC9zJabJ00qgiCiKEIFpdn1xSuYF1qr5fOSDFTaTAdS1gXbffGUcdZdft68I5koU4eBKAvjjYTCc/4vBtNTLpk6hLB5o7bUdiaEAEcazhDyoCTbiNVnRkBmekQZgQuvTWLftnA1cr8pwZNAPCDXtd34J/hURwC0s4pOr9D/HDcP1MBaAhR3Fwgqcs9PQ1R6uQeJ5/OMdR1T1p3Hrs4l2dozCKN1UhlDi5nYRQQx/M+pPqwFVswkEuvQGo4UL8y1Xm30C3GXW9Oa47fpLTEeVUZeGSblT/xuHgHHcBpZXtxAWmuog7eCLVVNTETIokmb+5z8VPb1UyBQUhhIjiU12ZTv6T73ZO42CycszjXtT/HaGXGxWfBrqmmmYL5xLM43nl3/fylktfQn4e/jJKA0PVzIMFPinzpJqGQc2mc1W+dYr3p6ornyZyOwmhx3O6G/8NxSy8gYMVin+9iiUJkMLOPh9zjYt4+jATBUH9wvl6TvCi8u9JZNDUxVk35jgOMrkVqKcR6F7mQ92gmQEw1/hJ4FGnhf4QaQ8ihDJtdJo8fyuSnsls5V81lv+s11kAw02Dc9PcGIBK3MST/KSW1ub3L3rOxVmXYgUOHMwjlnA1kceBg1XUtsEAbDTdTsSSYtjgRDFfAoFCKFNZ93zPUXb+8AS5SqsQaMgBr7V/PqG+FwbgKlZxTnHGDQQK2pi7zv9/TVlv3ARco8tn+FLpMeyPAXDl0jP6N5ppkqXGy80khCL6afmVsu+uwhbeV5byrroFuR876GzYCrgyAGGqL93BOTUW/7SJAQgjliigIH/fwQfEEG6QFp2naA9ao4uJNpEnn35NGhIBTND8zFKlr7EghBT6UOBxblAX/oWusDtc9AN2Pw7TU/fMfM3FRCtMxnWwTxUVT+Zd/mM4164sZzY1Kexh+C9tgWa6fIUc3vBCUFyr7OOwFNWvwg8c4k7q6DokSkmwEJLoQ4GFS9kr2aQWziT5qB90glSNCeiqxv/1BqAUP2q6EBdq9kSrUuL5VFO2KwtJoDAbfykJxLDAIC060PLv34QTXjU6D1MM2Sam6EznPyabHkEIekpouvPkOwLrKTf6DDUUGO7TJiDfBNynmcDbTA1ACSWWn+/Hd51G3FlxWGbTBWjLaeV/vYB+hmDlQctKvRVNWqG5MwD1lWBmnsGchY6esSDoGGm4/Ucqr9/GStUbfqtPm4D8xuON1G8aZ2oAYllmaeqV4E3FUTgOSFAlOTaTTG2nHIM1FrMCovnKqy3Ac5rk6S1s1Gw8esqtJIQiLZRnacHIT7KFsnzDbcoxNdjtc3HwHMVxB1cZPqVAS6+wQZj75ODKylohf2UyVH3qv0kcnzh972SL+fmPOP3kTpd1gSXUrsCZjKcyD2t+aqLcSkIoUk7zHHOoSbYAj/OWMony4/LeqAE7TBx7MFy3VC943g/wKLBdmitJBFpzgFweAKCO+tQ/w92MMelB0MbS79+Yo05nP5VE06TmZMXxl8mjRKMXVltmi3CpIBQ5E5wkwfIz8uuxXs3GG21RCmwm/RjAd7rXumuMzUKTzUZTxRFnnk8XSVdWcYQtvEISrZmk5Olp+xv9yqsm4bxVlhqNxSjdCvW/x2rTLUT+aimPl5XJri2p3uhjNYIgFDN3Gxxa+Um2EMG7vKuE1Ppa6AzsIIdptOJRXdQgjz6a76qpOh3Pqa1AE5RpZOZIi2SIppHYIqoQoeYXdFFDeHmcNJEvyeUJS79/N1UTQLsNMJMr6a/0Sq6svvKyxuEp9QBCSHIZvxpu/3lKKkwr9iiT0ixcZr74P2fwyO8ylNAk8y4ZOPhOfWJG8LFLA9DH4KH4RK0X1DoCXY29lqoDYpXv147lpgv6VBxkca/mlcI8ivymJoIQcoQzy6mo5ybF6bWYrymjeUp73xtorFNxUCyteZ4bNa+McDGFmjo5Hy/q9Iaf8/j9z1m6AlcoOgiFY6bpceNw8JkuP6EuB522NIIQYvRwWkC/p6S2tuUoY4kiVinA8W6cY7ybun79k7WwEqCAyqbtw07QQT0ixWOPw+1cbukKXGmQQn/e9Ki3yKI9UFLVICqluS6SDiyEKM65fqdoD0AUkznDQKJ4z6dewNZEOwsMwGjNa6WY4sLvUBjjj+MzN99/kY0MtNwP8AaNXEkWt5gcEc23LCMeGKzJbpis/tQmk75DghCSmwAH7ypPudps4jQDnBKGrOgD/8zr3EU1p5BaaZpwBzfRjGTiNQZgrbpeiGOcixbiDhxMVXfo7TUuQuPqY6ylKEAB2mjAbxo3XyFxfENPoALLNN6KnqoLNV9ITRBCkHucMvUPcY3y3u2c5jTbLMUBzBqCb2cUtXSegIGc4gLZZJDOGl5QnXDn6QeEUY9JGrFO55HJIOXz4vjCZT1iFS+vQWc1GvCM6fulGEU5oBVpGs2gGqokyUW6yI0khCaXs8dpChUUBkUxysk8eOsK/JuBmiLb+ibfViAnMoNZFvIOD6stPpob9ApyOcoFHByijpfXIE7Z5qxzYTqilK1HbV3ar9YLII3ChRAl0qRV2J+qvk5Zk4x57zcEb2i0e4d7oTVoPrYoEzyMQZo4fhYvcjWp7Cbbh/KcKgzlHZdSZAWEqcnN+YzXBCmlUbhwyWwCHIzQuMgOeLnwP8N+9nKILHWqX2Si6pIrp2bV+z4mK173aMYpCv25TFK8A3dyWGnk6S3eT+FCvYTdiqiaIIQc1fnTaYr9TnX1/TFeTP6P6MKN1CSJWvTUCGddYJjqC7jaRHI8lyw3rj9nGfJuymdFcw8/8i+zVT98GN35ziedYO8p9AJkWy5DFoQgI8wkEpDDg+r7NdlhcWJe5H+q3z+KcTrn4SGaq594J4cNP/khLTQCYZ7HEk1STjma6IKOEbShRZFcOa0XYKjcSEKocoeJPNYKjcKe9T5BGbzNIO5gEAvU9lnGFCMI4w7DxiIVfbMu48piFk/ofuIIDWxezvvGeM1vFyY3khCaVGSzScDtVvX967xsGX7eNHBYkGKUT2fdhH4CaKmRKtf3LM7jN15hv+6V/kFx5bqpG5ct0iNICF0mmEzYd9TnaDRz/Xbc5efZh7kwAQcYx9Oa8p8zLDRoFhrHk8V4tWLVjU6hsuIxtZ+CIIQcHUw2Afs1cpf3+JkPoO1CWEhX/tY5ArXHPksKi3TtSxwm7cyKh8e5TvlXDF+q5/SU3EZCqFKetSbTrLDKrbJXjcJcRwmM+nktTDYfBcaiFnF05DNOmVYFFF/2fSzLeVT932uaLsviBRBCluEm02yTRhxjoi2bAGfxz2tcio5NJxYowY08x2pOqn6FXDbpvAlFTRxrmCpeAOHSwlkhz8EFeqnvtzcIdPg21pt076nC+yaqPg6yeVTtURRPU/oziumMp69hI1H0K4DVvK3+70q1QdmpIgo+CkIA0Da81Da+KsjgK+0kneHLOEpDk+8uxzTOmxz9D90tKvwWJWH00OgXlNRoFzwvt5EQuvQycfQVKATpd7v+DPNuuiV5wnSFkcFjQam5q80zmKJpUBojt5EQqhT03TNW4Be4tlqZuuO8HXNdJOlE0tcpPzC/yGc6lwX1dbtNXb3ssahCJAhBySsmE/CgqnlrzybgL5c7+DDu0iX7FCb9LNLo8AQfhV6A4g1OCoKf3MBJkwk4RX1mj7bBABSKgpvR1UXt4W66Bm3BrbbL4styEwmhSwm+NZl8R7heeT/FpQyXN+MtE8deLDfxAm8xkMc1q4BsNpHGTjJxcIKRJhGE4GCcJnBaQW4jIXQZajplC9YAJfnGBgNwmKsN31qVWYppyWO1Jii4ndrEUolhXMBBDnODdI/dTi1jklCgENIkmTTNdnCMVsr7w2yJBLyl8+xfxXJNGnAep9X/ZSkFSYW6RBuCMuNe20J1hNxEQigzwXTKLlLyAa5WHV7+iYQVpvi0MLQoNf/eW9WqgE1BaAJiNCpH32gUEAUh5Gipywg8qzQGy1I680Yxz5Y1wFGeow71ecrU76/V/snX6S+jaQa2upgzAc14RrNauk5uIiF00WcEHuJJpRn3TkWK81aXFXrejRwOcdSCQGhBt0JtGtIcy00/ioqOmqsyTG4iIZTpqckIzOUhblF2uB8RD5T12JjT3nGWzgC00ygAXzC0Eit+yrNJI1cm+YBCCFNZV6I7l3C6cAwHFxhBGDDQtHTHm3GAt5jGNGaymuMeP+1jooBk9urKgYMrJBip2Rqle92XQBCCCm1pcP7t/DBncHCEzkBlfvHTABQU04YRTyP6sdRtq89DXIlegNNBFncF2TVL1aya+sstJIQy9VS5awe59AOimUEeDnbQFOhnWrvne0FQHG2Y59IInFeCgTMMEqPBJb/RTHP+EgkQQpoI3WRbRAyQyI9Kck4KpfzsF/SCyXfG0oIPXGQaPgRgaFIabPIbFTRegKOiDyiENs045hTYulOZnjvpQHtNS23vRxqlTb81lna86xQYzKQNAF10rUPSSQ6ya/ZykEiWCoLfxOqCgaMBiOEDVajjccaqbbG8H+eVrALz1cdVjGIlh1Tn4EKldXgDXYaCeUvuO3mo2IqHu2vcmWtIkJtICGU6a8JuBT73Nmq14DmWs9MvabAkN98dRgmupAeDSWWgmv9fjV26VCKz1iCv4WBqMakI1eGgqZCKIIQgJVmq8bnfAUCkxjeQ60UvP/MeAdFenlGcrlZxr6kJuYlMfvDggivHw9QMwBUrwRLN+U2QW0gIbR7SLGk/Vhpjt3QbsPNmnFYbfFpnmm4NkWC6dRnBcx6UA+J4n5UBaR+qDZ9uK6IGpYIQIKpq/NoFJbxxLLItx28dlbw8o36a1OE0F8/5MAsbgMv5lskBCNW10IimaRWVBSEk+Y+mx19Bk5Bufjj/jGp/bb08n2s07cI2Us6P36wSNwagnqAiWzS/33xl1SQIIcoV/KXezr9RBYAK/GyTAcj2ur1HFB9r8gPrBcU1itZM8zDecyt8IgghxkhN9d6DymtP2mQALjKKJLXNpjUK1x959AuKK9ST+UqeAkCqri/yOLmBhNBGmxS8Vomwa1/z1wTs4h06ehEzL6vJQfwmKGLtk3Cwj07q9dIKpvxGZbmFhFAmXNP2oqC1ZxQf2Vrwe5o1DKeOxdz+q9ROPOfUNYkrytGTlgFuIzpN8UhUBYzS6RfpK7eQENo04x/1hl6sOM7saRau1/7fzXPUtZTCU50ZSkLSbpq6PbIjZ8hkHaO5weDzT7KtZHeSskG6X/n/ON3vtYQScgsJoUwEszR++3sBqKgJEPoy9vGDSRegXPYziUYWjEAk3dihKAS2MHgRwjVOuSHqZ5/iE5ppjqzFRJuKiforu/7Jyv/b6lqc/UuK3EJCaNNcswb4llImzznvxkLqEEEXF92G/2GSpe1AQ8UIHWQESYrRiKY+r/O8mgg02SBH/oIaOozkY2Yov4t/tFRSppcqmY1G6fTpQdjeVBB89AOcVZKCU/zICPycfrRipBs9wL8ZQ22P59VC0QjK5U8WMI0ZLGU/Dn5VnJVard6CSMY8NT/vcS4yiXi/r07BamiruqJI1f1mEgwUQp4bNMW/yyiN/xmBZzjj4YidPMHlHlYCg9SGHGblw4mm5UqLFXfd1Rwil8l+pRNpd/3pam1CNbbpvnGk3EBCaBPNXE36Tn4Of0/bHYHOPoGd/MdtIC3OhUj5q4RhDMlpNQbLAFHMxkEuH5Lo59VpyAGdAYBHdIVSm4NQxlwQvKK9Rqsnfw1gX0ag+0yBjQxS9ADMaKURLjF2NO6nS8rRGpbHAWjKMRzksszCdsM9I3GwSbOWKK9pF+rAwXC5gYTQRisQcp4+yi46twhMgIMLrKCXi6SfCN41/ZlltDJtdJo/dlAXiGS22nDser+uThV+ZYWu3dkNGm0ABz8Vm0iJINhEB80aII2KQHW2F1l3gGxWkGo6jW4x9SbkcdytXsErALRWNYZ2qrl8vvEQEzX/K8mLZOmcj4/IDSSENoWCYA5yGaosfXOLzAQ4uMgGHndKFkrwqVHJ39RDn+Owl+5e1iXovRH1VIdlZaY6qSavcbONEYSQ4HpN8s5OrsCODgHeOwb3M4u2JGjiA74VJ+U38ErRxDeO0ssPE1DoElxq4nvIpofcQEJooxcLf40wYLDfXYJ8qx74kSdpRmnCgWYaGQ7r4yuigRg+17VBv9vPa9TCtL26AwcrXSghC0LIkKLxue+nCVBOp4NXtGuBU6xnKgNo79M65A8l/He/zoQd8MsX0MyNUOo5N0rIghAia4Apmlv6Q2KBFiZZ/UU58jjpop2I+1GQLlTLUNy8hfo+Xp2yHtqlrPdaAk0QgoxrNdM9Py04jKf91AcurjFScW5+6bQ58M1hd7sHsbRciQUIoU64Uv5aIOtZ1cKTzziOs5N/XSTpBHq1oDVVa5WJPtIp2vCET9fmBY/f/4sIhAihTj3+1kyoZwBo4FVGwB5acC2TPVYD2D35v2EgdzOcFcquP1up4U91OvZPH3IDozV9FFyvAaQuQAh5Ruo69OX3DbzLq16BrxNNDHfyZ5EagMeV87+M95SVwG56UsLEAPiSvBvDJFbxh4dtwJ9+px0LQjFzBX9obulPKQGEM8KLluHZTKYS0NuFJoDn3oJZPoiT7+EuYgAoR5omw3CVac+CMj6YgDgSuZ0J7HCTIDXehlwDQShWHtXc4JlKikucLkvA82J4Ne2J4w2fDMAMWtCJgYxlIev5x7LpOc1cbqU6Ubzo4UjzzoPWCCOJcZoOBg6DLMn1cgMJoU1F3VNzi1IIW8XLnIAM3qKPT23G31OfolEkcBW38SbrOWUpMfkcO1jBzx6OvUgXv65QGJ0MqgDG8KkghDD3a5bgeUxQdPhqs87LqbyLE15VA+Tv3U84Tc9wStOMYXzJMZvqE1L9vkaNXSgnFigrCkLIkqBTvjvNbcrrTV2mwtoxltCdEcwlnb9cZOzF0IhhfMY+P3MTcvzI3Q+jlLJCaerCzblGGocKoU4HXf7d92qWWyddJby9YxmxQCQ1GcP3tHJ5btFcwYPM5jdTuRAr4x+f8wGhLFO4Svn3XS7qFMbIDSSENnF8obulX1S1eB9WdHK9D9Sd95AetF+dlmHUo4vi03dFOGUY7uOGYJEfvYNbk8lg1UfxtovfpIncQkJoc4OuCuCY+kSOYqQXIUGtXOedPMRspemH1jAUmoUBuqW2eyK52ccNyUFa+3FdntJ0CYA6LrYB86RliBDaRDBBd0t/o6rilWSKD6m+RxlDaSK5hQ2610/wDAMZwkzSuNPiuZWnM7NVvR/vxu908StW/xoOXtP8/znF9fexpteyg2yPjc0EIcipqQt15TJO3QZc5mV9QKFufxOghq5AJ4dRRADhxFloshFNU15irQ+JQg5y2MWbfuz+C/b9Z3WTux57lW4FTXRxge1B0uBcEHxmuO5Jf4wW6jt1fVQL2sdwEknkc83u/RTdLZ5PLGO8CiwWZBZmsJnP6UdN1YT5TgwDaKzbqkzFQRpxQDP2a773LQ9eDEEIchINkf9vqaC+18GHqZgf7d/Bs/TgV53T7F5LLbZSvXjy57CZZbzH43SiGeU1PQX9JdywhbiJbD5RTMtIjck847cCkSAUM3eTqZtU/9NMg5E+C4blkWVoPJLB0xbcZv28MAAX+Z5efnj7rVOS5byt/LsaG3VZlHXlFhJCmRKarkH5EfT26nvlWGxjFsA5Rns0ASX5wKvA3xmmkFwEV2mMJvLfWbcymi2JwUJoc61BFCyN8up7jdljUgv4KV/75KQ7x2iPG4FyjNV0M7YyfqZlwK9RiqZNeASPalqrZopWoBDahPOqk6JO4R7YuXdALp9Th6d9EgQ5SQcL53MdszngRSByL50DfI3idX2II+jDDvXbd/tReSgIQUAV3b7WwTFFcBOgPCtMptwXVONxr9KFcsjkIg6WutwGhHEZTWhDa1pwE5O8al56kHuK+JrV41N1FbTQhh7FglCMPGxY0q/SqN/1MJ3oX1DLRV8/8/Evj3MPg+ntUl8/ivFkkE0WWU4uRCsmoJfH3EJ7KcUIRTVA6zoVhBCklK7BhgMHL6m79bJ876I1xx2s9UrJ/w4PU7SxG11+z+MwdxexCQjjDg44uU4FIQRpa5D2yKCbhzWAg+2s8Spl+Dj/c9EluIB2fpqAO4vYBMADShh1LVfITSSELuGMN0ynjYpSEJT36knvPnY/30PkvDmr/ZAEOcIjRBfpdYtWhdY/0zkKBSHEqOFUe/e2mmYz3MZ8gB0eluqVeVaXcOvdOMvEInbJXc5mJSH5fzYkIgtCsdGXbEP7rb7KO428jM17qhv8n9tJGkZjZrmU5fS8yljKzTYmBnumv+JCPWm52lEQgpCSLHIqra0BQARDfJQAdxUUnEsVt+cSRXPm+fydJ5lOCmVs9wiEmxqWBJb53ZlQEIKAVk6tQqcrqa6RDDC04fRlZHBQrS/42uNkuYzlfnzXKTbwBoNJZTA9qG+LgEdpXmAwVU3WThfV8GhFuY2EUCWMMU6Jv33Vd1vwo589AXfRgQdZqWw1NunKbp3p45MykfmK4whLuc3vjUEY03Gw2MkEaEOlL1mqexSEoKSS2nWn0GlXmOpalTd9VAws7AlQitLcy3LO42CTmzTaMN6xWZT0X17nMr/9JHk4+MTJ418YKj2jEz4ThBCjq9PO+yPN7R5NH790g8/zKiWB0vTkO7L51k3H3XvJsr3D4GLq+HV1arMPB+ed+g5o1wD7NcIqghBiRDPVadIO1h3Ry6+YwHleVBp7l6IDr7ppsxHL84a4hB1jI438uDoFOsEbnfb6d2mUFX4SnQAhdElmi1O9XUPdEd1d6OVbDdR9ztWKhz7MraxWLOMCYAKW+9XYoyqLOMdpOhpeL8GnOmFyKRASQpZ7nbYB83S73khG+9nCay/PWZqGsQz1OSPA9fjYh+7BhVxGK7qadAZoziGN23FskeYiCIKNxPCeYcpcYJDBWbjO7/34r4ygisdYfRid2G6zAdAqINtHGK/ochIflhtJCFUaaCQvCqIBV+mO6GZDalAOWxjHdR5ltVrZbgJOWJAm8Z5qrNFJobaRG0kIVfo67b71+nexLLBpMh7nI7po9IjNaO9TI3J34wcP3+gbei3lX6glN5IQmsQy3SkpqJ/uiM5+5gToP/tnhpLockMQyVum24g8P7YBwwNw1cIZozunxX5nHghCMXE5Pxkmza9KbUA+8S6kQnyPDmzhCZd5Ad1NRMpP8jyDmMgyduqckjtZYaGi8E9q+32NIpzy/irpEpjzeL1IpMsFIQDc4fSMn0YyLVXR0MF+pgabPZfXc5dpaLCTaWLwVEoAMSTTj0/VboLPEc79an6+6+H/GqAKtzq9dqOiE1SghTzCr16FglBsxDm1xz5Jf77nBuX9ZL8UfFyr/b9NPafNwH9drBomqxH3KFownQM4OMAMpluoJFjlQaHIMzV5zyktOIxRuu8+QVe5lYTQJMmgGOxgHW+pIcFwZgXAADhw8BcP6+r3KvGzy0jCQmpqluRXMcVyU7OzfscCLieNy51eLcEHuu/ZTVO5lYTQpLNhOuXwgmbC3eO1fq/VkcU8Tf5hAm+6WdJvoJ0mrh9FK760WEk40s+rU4ZPNFejkLqKTlDB2CTdA4TQJIIXDZPmAM3Ud6vzZ4AMQL4z70F1HRDPC26iDkd5nko6B2VfftN4KHLYrHoItGOhn8W74fR0kdHYjQzdNy31IIEiCEFKJVXxpmAs0Ox73wigAXCQxaekKE/3GB4i3a378H7dnv4K3lBXL0e4mlST1Uqa3z76KBc5hZE8Y/i+tyklN5MQirQwKAWd12QE3B2wTUCh1u9YrlCcgu2cpEv12QTfcrcmzz+C9nxLNg5yGMM1bAiAASggxsnXH888g8NynLQSFUKRMAYbegf9oergX27SQNTukcdfjKU24UATD5uObH5kEJXUKEIC9/IDF7jAAZMtxELb9Hs68LCTMbmC9YZzGy56QUIoUpKPDFNngnIrR/FxwA1AvhHYzTt05jIe9lgifIEtjONqtR6vPD35xqR24SxDbbtCbTnJm055fy3Za1Aq7C43kxCK1DMEBI/TWnnnDtuVe1yPTHbypaY9tzuDcZj59FJdb/GkMIolbGAv6WxjGWO4iZK2XZ8mnMTBYqfswvsNZ7uPm+RmEkIRZ792eQAqGkJevo5zTCeVATzK22w2bDl8HRfYzEgaqf2CokkgiWQuI9Zm0fByioFcxZW61yMYbQhg/kFLuZmE0COCUbp8/FyeUN6ZYFMa8HZe4zpigDLcwY+WugKv47hJlYD+c4/xHq1tEQZ3TTgzle9bZgj4xTPHcEaSFSCEJOVYbMhwy7+RUzhmo3bvdzzDQPrzjoVs/q1cTUP68R5/eTADp1hKL5fNye3gVnXV8o4hPbiaUyB1va6sShBChMYGn3++RkAEM2yZ/If5zXQa57jJ68uX9wqjJg+xwsPG4RwrGWxBhcg3EvlN3XgYnYv12WQ4l8UmDUYEIeh5WBdMy+RuG9cAr3G5IYs+/9n9Mh34L59y2KT6MIcFNFZi8GXpyiKNOq8rFaLRNAhIOG60+i17nLSHb3LqrLRQtAKE0COKN3W38c9Uwyxh2LfOwcvZZuLP30p/yhBBfd4wNTT7eZ6GShFxSe7iJw+bhzwOMdGCFJm3aDssT3FKDOptiAfkMcMvcVJBKBaqGCQvXiECqMyqAIb/LpLGGG7mPy6EPvI4zJc8TQrVKUcyz3LS42ceYz632xgIBHhQzVH4R1MxUeAmfNSQwZDDu34XJAtCkZOim4YnuBmAa/k9wFkA5zy6BU+RzlZWMI9dFguCv6aXjZMwVtNWZbzJu+MNv8FFxkt6sBB6DNI9y75WMgJSDKmvvpcA7WENafzADo4GvNYgmxWk2uaSS2a1Guxz7hQc76SgkM3LNq9CBCHg6LWCctW6+hpMYr8fTUMusJIR3EwyJYmjBJWpTxcGM5U00gNoCnL4nWepa4trsCG/KA7SNibvVuYrp995rJgAIfQ8Aas1N/EhVSYskro8xXK2sY8Mr03BLy484+HEUYduzGJ7wBKPc9nPeBraYASu4hvycPBf03drssLJBLwsGwEh1GivKxL+SpNkE0YsFbmcZnzkpWzoPuq7/c4IEunA2+x0uxrYwBQWsIEMp29P53tWkqaMbZw2mKg8DvMWN/o9HS/jbS6wVE1B1tPYqag5W0qFhdBjgOZpfIFhJgk2lVnk5XN4hIXvjaAavZjPURcrjN9pSjilacF4duuMwB4e5zKiiCWOOCrRnFQ+dYoY/Ms8Ovg5IUvQnRku3YvN2O1kAl4NcLKyINiMvnnIYVqY7oh3eGUAths6EbsmmkYM4wuOmqwyNtBYWYvU4WVdO/MLLKSNrnFnDDcy08kInGYh9/iZOlzexQoA4A4nibJzvCB5AUJooW8eskyny1dAfy+ddytJ9soINWI0a5walq9XDUkEzflWl2J8kimGvX4kPUzkxrL5xu+VgCvKmERMcpguJkAILdpwUHMLv2TiQivLt15uA1YZGpF6pjQpTDQIl/2iqbkrx5O6dUAeh3iHG3UtSNqymF0cMtQTnGI+rWzvJRzPW6Z1C5IaJIQYYQzW5ARk0M3kGO+7CBqr6q0QSROm65byPykbgfx1wA18aSg1OsYC+lBNnd6xVKUOHRnIcOaxVy1BOsKbpuLfvpNkUArSblHmSJmQEErEqZXwDhxspq7JEZ96HZRLI4UyXtftRXGrTp5kK7drnt7lGMxGg+PwPH8yh1RakKh7zkdSlXtZpfgX8viDRyhro/dknpvfXSoFhZAimbWa2/czE9dZB0syXvqA3L9sYBq9qaNz2Xmmsa7u7gTPqM3DABJ5nG/4m7M6z0QumfzBXKYwgi60ojWtacmN3K9JKb7Ad9zqxq3nHTcYNiz6sZxr5LYSQocWmuqAi4x02jNH+9xELId9zOceqllssRlFT0MvowusdPL7VyeFLrzOTyY78QtkqSPT4MA8zVTq2HLFIgxVlQ4n1aDmclsJocN/NFPFTPu2iYWG3e5ShHfwCjeS4HZTEMEVvGSi/uvgBLO43qnrcDhlGGzaMch90fI9tqwDajiJhGzhLbZoAqKt5bYSQoV4Zmri8XvU1OACwhjntzB4Bj/yCn24geqUJE4zKnItDzCLXW4yD4+zgH7UJM6wlhhsQXrMmCMwk+o2XLMHdEpHe7gG6KfxUeyjj5fbH0EoNirrqgNWOk2RKvxgU85+BrtZoyb0ppHGVk5aqjvIZTdpzGQIg0gllVQGMsZ0zeDJGG2gs9/rgJK6kqo5hAH1OaIzNU9JfqAQKrTT5QTMMUhjQoqTLFYoj1OM9jsuUEez5F/PYAbxtMGDcY6JOiemIAQxWsVAs154fXx42gbvyOELk6Cnd7R1Gw3I/5bFNjkeBSHARDFRswvP5lHDfjuK3k5lMKE9dnCnX3mCYQzyIGOaHxNoITeXEApU5EtdXV1/pyMa87FhmWt993/ehil7hrm8xTLW2NTN4AQj/BL0cBYKMxt7GSCNRYVQoIGqj5/fu+cOpyNiuIFHeZ8fSONDFlr2wq/lEVJZZKlt2EV+Y4epYzCXySQQRUmuY7ALsXHvxnlmkejHFXPuHWQeexgX0MYmgmATLXTL/AN0Nj0qkjhiuFYXO/Ck3reRx7mRiRaO/YPrqcZ8F8Zhvrp3j6Yh43Wed99ClN9Sz48rVtXQc8nh8bwFIYjRO/v209XFPjmahV5vA/5hq4WQ3wV+ZZabwONO+qs+/AhastrvdcBGv3L3rJkAB9voEKDORoJgG5GM0C3UTzDENKUligXF5r47x1pGciPxRAFVmOv3J+6isx+T08wEHOMrtho8H0f4r5QMC8FOCcbq8ujPMtZU7KKv13l49o6TrGcB0xnNmza4GA/T22LNgrkJmGOoPXiPEpRnsGGLcpHPqC/rACG4iWeGbnLnMJfLnY6qwIZLKix4lAf98NbH87IuKJjBm9xDK6fuwg7+opdtlYmCEBBK84mTVl9Tp6PuvaSSgxycZogfJiCGoYYg6UWyTFdJGUz0SjxNEIoc533tXgYSZ/ADPF/M2wCrnv5sssi24Cz0zwREcItTnaCr8TO32C5XJgi2moClTsG8yYb2H6UYZym2X5zjEx6iPa1oTz+eYQl/uD1j/0wA1OEDi1KqJ3hR2owLwUwDJ/3bXJZzncFlONpr3cCiHc/rzjeaRG7nGZawiWOmU9VfExDPMP60GBj9gTslS1AIXgq65WnHbu7VObGiGcChoF4BmC21oyjLPZqKPjtNADTkc4uRiQxeskWhQBACtArYYDJBnjfEs29hZxFE/19nAEOYyWqTzkJHmcUgXtJJiBeIc5hl+pViCDsNWsMOt8pI3q4DBvGnpRSlXLbSXbQDhGDlKlaapLbOMzy3WvFHwE3Ax5QHwilJIx5ng84B+asSqBxokms43Ol3imOah536P9znZ7w+jCt4wWPJsEPpR/wZ10l+gBCcJJsmuy43PFnbWbzZrXruM9lPus6/kMdn1FC/rxL9WK069HLYyMs8zP9MPBKbnbIYOloo5D3CXX5fuXCa8Z5T8zLzkc4zVJObTQhGzPPdVxsKXB63MSj4Lw+SRBKdeEsXXdeHz8oylL90C+2Lpsvu8YY9/S2WMhj20tKGaxdFez51aoBmvhnYRC8nNSZBCAoTMMdk0byc2ppjKrDCNhOQxzSlUDfe0KDsOOOopabthlGb9zS9jl252h7UJfpG86rL/b9+7dDAlqsXyy18zHFLdZOfcqNkCAjBRymmmUyalVyh2fUmcScjWKRpzuWPhOhmpvMi75HhZBz2MInGqphHLN351cOnHeM+nQn4v/bOPK7KMovjXzbZAhPRRAWUEip3mtTERDRbnHKpMbExs8FiMa1MnQrTHKnJNMs+iWtuzaS2aBumoYKJio5baSWlyKK4RYlsCtzL/MHL9S7vXV6493IvPt/nP5W69+V9znOec37nHD+mW9TufDshVnp+HvRjEYUWBAatP9BMILACN/OGjIjmW4ObqyehjGalTVuIqbnITt5gJPcSTnuGkGbmTC9mlo7wxo1uvMWPZn2Wz2hntSfozu1M5YBZ86jmZ2bQXrxyAsdCXvbzpayizY0I5pDT6Gp9c90Dyikij1zOmu01oGIHD+vImV0IIpZU9lFs5Kev2aCrXyCjWWXW/6jhMBNEJyGBY9GCSQZdeNR8wE2y/9qFzrzX6K491lxlbGQYgTrXAVf8iWQ8yWzQmliwiy28yd9o04gyYeO4cSfJZFFi0kBW8RUjRVhQ4Ei48IjW4M362Pu7RqUsbgxgn0NpAys4wlsMprPByDF3nalFnjZ/kv70Zx7ZJs3AVT5nkEGbdmfHFX96M4hoohlEb/xtYmYFNmKggYj2KrNMDMMK41MbXwUaUiGYy7e8QTz3E4ovXk30CrrSkiheJ8OEGShhIw80GyPgwQDeZB+/U0kFFVRSTDbziBBSKOehJ9sNnOvpJhpdBPJfh60WqOA0WexkLckkkMhI7iWCdvjgjZfdXko/ovgnX3PRSDDzChuJsblXYmvciOZjg7GuNaio5SSz6SC2lrNgqAwo42UTmvaOevl8x11VlHOOE+wik3RWkEwCExlCBO1sbg686MmTpJItU+9Qy59sYIgTewKhvCcz01nFfGnWopo99BJby1nw410qFczD62WHegFbXhkuMMdO/oALLenGC2yXuRSU8F+GOGFg0I3HOGJEBN2ZeI03dr/YWM6DF0l6Fr2GTVp6fX1i9QyGc63TdLdbXMATV6CjkdkLV0jnMadKEbYihT+NPNcfaKUxAAUm3h6BQ0ZzH+InAwHtKCP19L58btFWq+Ys2WRwxuKyoQsWSXsbdzF4zm5PtSPrmYUncLfR5iLl7CbOScRC4WwyIbi6xidkapSXvmJTORu9DAKCl1moUyVwnUfM9g8qZyOxdMGX1prXwrRS716CuZMxTLNpn+KNdnS73XmQB6WsxGgT8xhrOEoy3Rw8ev4XBWngF8V2ckbay5QKHWcqEQaegB87zLwCq2kJuBPETEotGiU2m4G0xo2OBl0Mrbd+adQAscb5WK+a7F2gpoB3iHLQliIuDFPQLOYsPcRmck5uYrpByauKQlbwELfiq5UgfMHMS5DDNywjjeMWO/VqyjnKTo7rxM1VlFFIPiUWNuk03S348SZ8tr68Y1bm/CdpPG6HLIVS4zVWUZeId4UcyHlx5zFOyirZCsgijaWkksoS9tpFEqRiJQMII5S7GUd2I/+fH5gQOdmDAFZZMFXxGj+Qwt1N/Fm134iJiga5n6ar2EbOzT1kOojir4p/adUn9GhUt6IKkrgJT1ya8HwN4D8WftoLfMpYG1UwKNv+UxQNjqniFaEEdH6C+dAKvQCsYwIySSQCHyDMotp/3cYcheSTTx6XqaWU/aSzihFNGmdZb/Gl6BpHSCGqCROFLiRYFMG5vjaLoqfmgS9TbFT/V2RBJz/9KHkRaUziBQX6gxr2soDhdCaEEDowVCp9quDDJh7oFcBqCy4C2rmY7zUm0N7Eyij+TK2D3Cm2TnPBlaEWj8hS0iXwWZkpBZaq+JS0H5+gs+n+RQm1nGWCA+jwW/OuwpBmDUVsYTyhdh1I+gD5ZDOT5w3qRuVXgdV7LgiamHC+snI0oJpCO+kITzKVCILpw8vskwQsyQ7yXP1ItrDLsO6VII9PeYIgu8whiiSTZwgAbuesRZ7KGLFhmh9tedOo+NP4WX2cvQ14wa29aigijz80JqyaJx3mubozykB7aWlc41c2EEcXmwYIu5BFJeOp6x+lsiDFGi/GozVP3BjDCYUnVTLted7mst6GeAUjHeg1tXz0mJxxy2MNcfTAxwZR93Z8IeUi1vOlBYNjy5npMGlLgQ24g22KrgLlZDtozeAfvMOtDpOoMhw9puJ3ixqP15uBi2Qyg760tmITcj/WKFRrvOP0HQ4EZs+Efxs09na8VU4pFWZMlZqTen1rPAkmitua5CWuGz1WpNWUrT/rFMulSjjCSiZwuxVan1g6beH6Wm+ieFzQbHBnlJE5vJZrxH+38Z1/B68ymueYTyqpfM1BiozE208xj3CgJfFs4SRlFLKJwU0ivHElkvfJR00V+9lpomzInCEoYDvzeJigBjvkLZiucFD8ESMFY4JmmRXY0OAY/iVGMtGKY8fkt8Dv7CedrSxjMSvZwGETN9gTvM7nOp/oAi8qSLS1JNxqfX1cieAVdipS3RlPgf7M57xEDCEK1QOevKBw+5c2aX2FwO74MNmi+v667ajtSu7hVsY7iL7QVDR7okVOtDej+Z6PjDRSb/jtuy+z+IQTXJTxXGoo5pSCnEwp+aQxjccI42YLvpU7UxWLtDY2u07HArNnVW++tuiWWEYqH2oGjFVRqDih2BTrPA9YcPancpWzesIXV9rQjVhSWEKqtJYwn2cZQIgCU+FOO7oykkQSSGYJi5lGAknE0lNhYU59VuYM2SwngQgTjTpa8E+Fst9aLnCP2BA3IgEkW3RTPcxQgollE+dNhuZKOUQGxxS/gLZZRwg28+1XUU0FSVp/1pq/s4YfZLsBq7lCPjtZwHA6NioNGUh2I3URO0lhgN5IlbrvNF+h819LLR+L5N+Nihv3k2VEIKLS2uwFjMOdFvTgBXYYecVUTKclXgTykYN4Af82sU19WYSKGt7QZA3aMIn/WRQbucpvrG+EiCfC4uuXac3ej6wmiX7cggfgy1C2NUC1UW23+78nHUWNoeNxC2/I+gEXyNCan3uFN6Q00U08yCoKDcyGiuel/+JKBzEAJTxq1PDNpAo1K6SqNw8Gkq5w89SQxwqGEdgAszvFKmHCuqd+hZ/YxGK+baDnVWin/kqteYu9RIoN53h4MIgMg3CVmv38g7nkS0aghjR6SmeeOxHM5aTeljnH87SnH6cdJhJw2Ehf2+EUU8u30iDVEBY2OGlXwUGm01mhL+DOJM47yDO6zJvcKitA8sAbf4KJZBDRDCSCNng38PITzKeoqOWA3bo5CxTGA16VeSVP8SS38yonJSNQwFSNXMSFzjzPTzpGoJoTNh1Ernytlkmh9eEEtRTQG2jNJI41slRKRS7z6aXoJu3KAL5zkMbsak6xjnFEM5D+RBNNNGNI4QsyyeY0xVRSQTnnOEYmH5NIP4WaxX5kaZ7xCeJoLTacI+YF+vOZQb79MvMIJJQZnEBNLVXs4mGtLHsHEtjtgPUC12Pnb+ppA++Vynfepi//ZL+ilKaaSk6xQ3bjnue/DFakQ/TncbY4SMi0lmoqJA1mBRUmlR71msWnCLXADHjwqF4r0mv8j9n0x8+syfTQGRBrnzGxNzQ38TTH9c5DFdsYjCthzOIY1dRyhTX013IF2xDHbocdM1JOCrdIPksgT0m9/dX8orBNxmWyeJ0hdKIV3xitUdjEI9ys4In7MpiF7JcdPuboS0UO64ijmwmhUifmGzSorX9W2WxmLokkkkQs0cSSRCKJJJLAFBaRymZ2aQ2Jrx8Uv4BEBtNGBBRtw20sNygCLmYmbYAgXuVn1NRyiXformUEWhLHPiv0/LXN2XaQ14jnFQ5ZbKaq2M1xrQYoGxmEv+bbjjbxTSvI4GmCFLyeLtxMdxJZzUGKHF5kZWgGLpLGVKLogLeOaQtnssFxYsr/UKIvLeMoKTpvoMCKQcGhfKf3iteQxV9xBzoxh1zU1FLEB/TU+hW05gn2OfB1wHJH/yhPcLeUra/hawboKeU6m4l0VHOM1whTGBp0pRXhjGAKH5HjdD7BZU6xTSOeWsIOimz8Lqg5x1xaiQ1rC1rxDDl61vsPlhOOC67cxhwKpN6AS/mL1k2wHZM45mSv7iXStD5xFal05i/sktKfM2Wq5HykvzU8xSo1z0zFKVYQ06D2mu60owfjWciPRhxoU9viEj+wmpdIkBzqerc6maWkcZh8CqlwejNdfzCt0vLMBFbEhduYp9fCW81vzKAd4MqdzJFmD5xjFUO15KnBTOaQExmBNCZq+Tuf8SALpIzIJZ6VdTK9dQalqcljE9MYw72M17s+lbCDGUQ1cMqeK4FEMZMMC/V91ezhBXrJaATraUEAIYRxP/FMIZV0sjlrl2vHBbZbTf2gawJmi2iA7TIDfflMr7RERTb/oDXgQgTzpBRhKVt4XCv8FcRkDtm4atBajuQSrXl5Ks5SKhmvSiYbebW0DUAhc+iiiWc/J2P41FxhG7MYQucG5tFv4kHWmvUFzvCSQlmSC57404URJJDMZjI5xh9UWBTLUSsyGyU8RhA/2OQ3eJZosVVthw/D2aX3SlTxPbH4U98KowA1tVSyh4laOd5bmMwRJzACFUa8lRVGa+SuXwGy6aNlJLoZnR9cl0LMZRcbmMtI+iju/tOCoSYHrp7j4UbHfrxpQyTRjCCZFaSTyS5yOC3TGbKCVCYqKAvLxh931hsVV1dQQgE5mqj/TtZoSrHWsJNMMtjOXiNGcIPYpraWCU3iiN42qSSdR2lJXRX8XMkTuMYBxmndmm9hip5YyFlWoYnhmMH8Ri215OpIW9sZTQ8a5hhKOMI6/kawIvlQBHuNxuJfsPoV0AtvvGlLX7IM/n/LaUG4pgeS+fUrj7LEoAbyLNv4gOd4iGj60okgfDT5fletT+KODx24j/eNTJU6Ibao7WnPawbnWyUZxBMoeQJT2U8VtVxlD89qRWc78rSBD1FLAbvY1agxYbZd70uvoAvetNXbpsMlwdSrOkbhM8WKwipy+ISxBFngDXgSw8dGuzT/ZkT03Hgz0Jt0Aw/pGiOAgQr6Dqi5KvN0zjCDYBM3eFe8aEsMCazgMFeMPt9fxfa0D+G8zWm9X0M1e0iS1PBteYI0/qRuGNg4rfhsG8aySesE2MrteOLFgEaVxtoyujxGisePZjvHGav1FPzYJP2rOOlP3Ihmt+zrqabS7J36Gr+wmAeMmgEXAnmETSZbtF/mS5K14v51UpolWv0MkkgknmH0JoQQ/C0yOZG8ITvITUUWi/nCCtc7FTmsZQpjGEg4IYQQQjeiiSWRl1jNTo5bEAAVBsCOYcEI3iPP4Nd4ijeJxAPwZgCL+Y0arvGVjmLQiz4s5jeqqeUof5Ne+Ll2CvUpu4YUEQ4EMFO6de7UtAJxIUkjmJ4EQCdSJNOm0jsrT5LCEO7VGAzTisUTLGE8t9OBm/AAPAgglEHM5ojiHj/GjU0x+eSRzQbeJolERtGfMGnr1a+ujGQKn9torJx8/qKcIvLIJ4+LCkVBwgDY3Qh040OZl+MCyxiMH+BGMM+whWKKWUA7rZ91I5jJ7OAK1/iNJYzngB1er3ySLb6f14fUJvAs32jMxkXptt+Cv2t9823cThLHUaMml7XM1hm/tZeeANxl4VCuOs/jHCfZwyZS2cRhCmxeK1BFqTR8tX7lccFBNZ3G1kGxKe2NB5EskekQdIUd/INAXAAfepHEV3zJEL28tB9RLCQPtcGZaYt1lVjgXaN9Di1Lcn3KHfRhmU5b9SoKqJJSgbcB/bXi4oVEARDK981EdOO4BV+JYkM2jRHozjwZUWwlR0mhn1Qz6EMvHpApAHUljImkNbgS3/KVSwhdOaJTJPyK4jNOxTmtAWW6zcf64gJ4sEDrT9+iruh3h9HXNrcZyKYdYf1OP7EZmwoXurGAEzLneDFrGGW28tuLfqRwRE+aWsYPfM8Biqm0godwinf1xqLNI8GCUVmWylAGSt/lQa3z/yrDuZV/aXosVHGJfC1HP5s4Jml5GSou23jeQvNdBxvQlUlgVSMQwjSOyJypVznIDCLMqN9cCeSvbKRQcyKqKeY/3E8fBvIUi0jnEBetYgzqt+NVq71+86TYxj060YxrHCBf+rzVHGQCXZmtiS9MI4BIzdi1S2xlEoP4TmzmBq1vRI8AR+AWnuKAzMZSUchKYsw21PagCwns1tKLX2IZvfHABU9a0Y1BxLGSTHIocZgglYpveJnhLDEaMVcxj7ZAoKQe3E8/fHlC8kkusIi78AaeaDYFOvYWbI0Tm89RaM0oPpZ1ZUvZQRIhZso2XPBnMAs5ofEFfmcDI7WMhyvetKcPj/I2G/iZcocoOrpmQgK0nw6ApzSeO5dXSOIbqS/BzwyR8vFDTIiIxTK2LrKYbk0yCE5g4iS/h3n8IpPJVXGChQy2YAhlZ+L4SiMbqmCHRmqETkoxiAEksZxszjlsQG0/gYSxVDrfK7VaklxgiGTUxPZXuuoagtwlGoI4alQgmGdIl51EfIV9vEh3sxp4T+7mfXKlE15FLu8xWLb224WbiSCB5Rzmz0Y2+LT+KmWVQWeFuvUJHkArpirQ1N/oS8UljvAuQ0RLMMfHjxhS+UXmvq7mPGsZTUczglRXwnhN6kRYZzx28zK9aGnE7ATSl9fJskNqUbfUdZ3UaFTZegVPhvGd0zUBa4pVTREHWcuLdJdUJgKnwJUOjOUrLsmcgdf4lQ95xMwv1IUg4tmjMSNqLpFFCgNoZ8QB9KcP0/jeavJZ8zqDF9ndgJ87QFoDBnndSKuUAn5kNdN4nHBaidu+s+JDT15kq2x4sJyjLJSVCumGF8eyWUcWe5kcNjKD++gq22/HnwdYxq9O2G33xl41nCebzSQTTwyhtBHbvrngRT9mkyV76lWylwWMoqOJX7c3w9mo596rqeQCO1hKCuOJYRB9CSWEEIJpT3eeJd0p+hLd6EvNnxzmc6Yzhq74i3GlzTc86Mf9zGE3xTJncxW/sIInuQMfI9cCT+7hHU7I6gBUVFBBiU5RSxllDhcWFEtXLJbDRpLoQyux7W8kM9Cbl/hOdhB3DUVkkEw0bWSDhK50ZBxbZX9WLGcK7P3KcoYp7IokaEZ404M41nBSRkGoppyjrGUyUfjJGIK6n13NL0Z7+onlyOd+JokEK+yLKGimmYJODGM+O42MkviDbNYxmRg66syeqfvZYKJJYjFfkMMZyoXD34SJuhy+ZammmWcqS9jGKQNtRg37mKBogJrghsCXCBJYzY9G5Dyl5PIdrzGeHrTTGlBaRwuCCGMQSSxiKWkcJ59CyoR3YPOofRE7eYdYwgkyKMvxpgN9mMVWTaXkn8yTZjUKBLL+QBv6MION5BhpAq3iIjl8QTJxDCKMNjJ3yBa0JYQw7mU8KaSynmxOO12nG0dvxJHHJyQQYcHYEx8GsJhCzjJBuP0CS3CnHQOYzEfkGBX4qinnDMfZTCozGUlXgvGXTSS64U8wXRlJAtNYRganyKe4AQahlFy+ZBrxTONLmZ5IN8apX8haRhNq4IeZNu3d6CdUfALlhqAvz/Ie28k1mdOv4gKn2ccaFjGRGPpyi5H4sgs+dCSE3oySpuZdH0WdwSGdDnmnyJIGU29mPonE0FEzMMST7iQbTExo3usMnxJHF0VbXyCwQurQi848znQ+Z7+sikD3mlBJCT+xiVRmMoJouuJnUlPmIQ2k8CJAp0NuR3ylvzGWrGpPHJ/wk8Wy3iqNWuH6JJw6s1NEhQN7FL+zlRfpKpJ2gqbFA38iGc8s0jhMsQXFNFVUcJ69rOE9ErmPKDrhi5cV3VEP2jKYeKaRyhbNts6UfIctLGUx06S+/SOJpi+hhGpNwqkzO+EMYSJTWEcWF2QyInVTBirsrG1UU8Ie/s09RkelCQRNQgsC6M1DvMpmsiiyqGmYmkrKOE0W6aRK5qAz/g0c2ymHp2a8Vf1S2rLKDR+6MoEtOmHQapYzmGhiZIeT26b49jJ7SCEKf3F3Fzi2V+DLHcQwkUWs4SB/WNhBsM4cFJBNJhtIJpFY+hKMrxUNgvKohxdtuYenWajTKeAidwHQXRrLbssgXxn/YxlJ9BVbX+BsuNKKSGKYwHzWspfzFg68rn/5S8gli0yt2Tl96EQAXjYzCh54408XHiSel/iYTI5TahANUHOYZcznWKMlOxVUcJE8rVDnH5RxhlN8z1rmM5Yo0WlX0DyMgR9diWYEM0llPYfJV6wGqKKEAg6RQSbr+UC6y0/kPq15dtr3eXeZT1H3Nz4ESbWKYUQxjHgSmcIiNpNJNmet2KtYP2NfJOVHUpnJGKKJpptOqDOSAYTRAV9RfCtovrgRIE2+m8YHrGA7OQ1UA9RdHurn2elG9NezWEsOe33CfSa7yJH+dSFlNu0EpKuQGE64UYWEQHCD4oI3QRo1QN1JfJh88h2o7biym3sx+RxmvUmNpEAgMHoXDyCEUPowikQSmctadpJBNqcplp1w35RC3DIKOUQGGazmJRKJpTchBAiprUBgvRiCN974E0xvhjKRRJKYz0rSNeKdi4pCjLUKow8VFJPPMY0WcQkpJJJIPMOIIoxWeOEtXHuBwL6XBy+NeKcb0YwkkUQSpMhCuqTtyyaPfIol8Y7hqqSYfM32ziSTdFZotni9ZCiSENqY0SIKBAKHMg7eeOEvxdcHES27BhFJCKGa7e1tVW2iQCAQCAQCgUAgEAgEAoFAIBAIBAKBQCAQCAQCgUAgEAgEAoFAIBAIBAKBQCAQCAQCgUAgEAgEAoFAIBAIBAKBQCAQCAQCgUAgEAgEAoFAIBAIBAKBQCAQCAQCgUAgECjl/0Nfqeu7cEMEAAAAJXRFWHRkYXRlOmNyZWF0ZQAyMDEyLTExLTEyVDE2OjQwOjE4KzAwOjAwlNzAoQAAACV0RVh0ZGF0ZTptb2RpZnkAMjAxMi0xMS0xMlQxNjo0MDoxOCswMDowMOWBeB0AAABGdEVYdHNvZnR3YXJlAEltYWdlTWFnaWNrIDYuNy43LTYgMjAxMi0wNy0xOSBRMTYgaHR0cDovL3d3dy5pbWFnZW1hZ2ljay5vcmey8AeOAAAAGHRFWHRUaHVtYjo6RG9jdW1lbnQ6OlBhZ2VzADGn/7svAAAAGXRFWHRUaHVtYjo6SW1hZ2U6OmhlaWdodAAzNjQwngmAzAAAABh0RVh0VGh1bWI6OkltYWdlOjpXaWR0aAAzNjQwDdzTAgAAABl0RVh0VGh1bWI6Ok1pbWV0eXBlAGltYWdlL3N2Z7/vcE4AAAAXdEVYdFRodW1iOjpNVGltZQAxMzUyNzM4NDE4GD9WSQAAABN0RVh0VGh1bWI6OlNpemUAMjMuMktCQo8YagEAAABkdEVYdFRodW1iOjpVUkkAZmlsZTovLy9Vc2Vycy9hbHovRGV2ZWxvcGVyL2dpdC9waWN0b25pYy9hc3NldHMvc3Zncy9lNmM2YjUzZDNjODE2MGIyMmRhZDM1YTBmNzEwM2VjYy5zdmeouoQfAAAAAElFTkSuQmCC;" parent="1" vertex="1">
                    <mxGeometry x="922.5" y="293.75" width="82.5" height="82.5" as="geometry"/>
                </mxCell>
                <mxCell id="vd5NY1QZO35afTzQmUpz-78" value="&lt;span style=&quot;color: rgb(0, 0, 0); font-family: Helvetica; font-size: 18px; font-style: normal; font-variant-ligatures: normal; font-variant-caps: normal; font-weight: 400; letter-spacing: normal; orphans: 2; text-align: center; text-indent: 0px; text-transform: none; widows: 2; word-spacing: 0px; -webkit-text-stroke-width: 0px; background-color: rgb(248, 249, 250); text-decoration-thickness: initial; text-decoration-style: initial; text-decoration-color: initial; float: none; display: inline !important;&quot;&gt;Local machine&lt;span&gt;&amp;nbsp;&lt;/span&gt;&lt;/span&gt;" style="text;whiteSpace=wrap;html=1;" parent="1" vertex="1">
                    <mxGeometry x="60" y="521" width="150" height="30" as="geometry"/>
                </mxCell>
                <mxCell id="vd5NY1QZO35afTzQmUpz-81" value="&lt;div style=&quot;text-align: center;&quot;&gt;&lt;span style=&quot;background-color: initial; font-size: 18px;&quot;&gt;&lt;b&gt;NGINX + uWSGI + Flask&lt;/b&gt;&lt;/span&gt;&lt;/div&gt;" style="text;whiteSpace=wrap;html=1;fillColor=default;rounded=0;strokeColor=none;" parent="1" vertex="1">
                    <mxGeometry x="50" y="152.5" width="210" height="30" as="geometry"/>
                </mxCell>
                <mxCell id="vd5NY1QZO35afTzQmUpz-82" value="&lt;div style=&quot;text-align: center;&quot;&gt;&lt;span style=&quot;background-color: initial; font-size: 18px;&quot;&gt;&lt;b&gt;NGINX + Streamlit&lt;/b&gt;&lt;/span&gt;&lt;/div&gt;" style="text;whiteSpace=wrap;html=1;fillColor=default;rounded=0;strokeColor=none;glass=0;" parent="1" vertex="1">
                    <mxGeometry x="50" y="478" width="160" height="30" as="geometry"/>
                </mxCell>
            </root>
        </mxGraphModel>
    </diagram>
</mxfile>